<?xml version="1.0"?>
<svg xmlns="http://www.w3.org/2000/svg" xmlns:xlink="http://www.w3.org/1999/xlink" version="1.1" viewBox="0 0 192 192" width="50px" height="50px"><g fill="none" fill-rule="nonzero" stroke="none" stroke-width="1" stroke-linecap="butt" stroke-linejoin="miter" stroke-miterlimit="10" stroke-dasharray="" stroke-dashoffset="0" font-family="none" font-weight="none" font-size="none" text-anchor="none" style="mix-blend-mode: normal"><path d="M0,192v-192h192v192z" fill="none"/><g fill="#ffffff"><g id="surface1"><path d="M96,15.36l-80.64,51.24v58.785l80.64,51.255l80.64,-51.24v-58.8zM96,112.065l-22.785,-15.795l22.785,-15.54l22.785,15.54zM103.68,67.605v-29.4l51.57,32.775l-23.115,16.02zM88.32,67.605l-28.455,19.395l-23.115,-16.02l51.57,-32.775zM46.44,96.165l-15.72,10.71v-21.615zM59.79,105.42l28.53,19.785v28.59l-51.495,-32.73zM103.68,125.205l28.53,-19.785l22.965,15.645l-51.495,32.73zM145.56,96.165l15.72,-10.905v21.615z"/></g></g></g></svg>
