<?xml version="1.0"?>
<svg xmlns="http://www.w3.org/2000/svg" xmlns:xlink="http://www.w3.org/1999/xlink" version="1.1" viewBox="0 0 192 192" width="64px" height="64px"><g fill="none" fill-rule="nonzero" stroke="none" stroke-width="1" stroke-linecap="butt" stroke-linejoin="miter" stroke-miterlimit="10" stroke-dasharray="" stroke-dashoffset="0" font-family="none" font-weight="none" font-size="none" text-anchor="none" style="mix-blend-mode: normal"><path d="M0,192v-192h192v192z" fill="none"/><g fill="#ffffff"><path d="M96,9c-44.36061,0 -81.08295,33.43858 -86.33203,76.41211c-0.16072,0.43396 -0.21887,0.89921 -0.16992,1.35938c-0.322,3.03443 -0.49805,6.11057 -0.49805,9.22852c0,47.94694 39.05306,87 87,87c47.94694,0 87,-39.05306 87,-87c0,-47.94694 -39.05306,-87 -87,-87zM96,15c44.69306,0 81,36.30694 81,81c0,3.04563 -0.1814,6.04695 -0.50977,9.00586c-16.68992,-4.66161 -31.76615,-6.36817 -45.25195,-5.90039c-5.14979,0.17863 -10.05807,0.68252 -14.75391,1.43555c-2.88662,-7.44553 -6.14843,-15.12747 -9.85547,-22.88086c10.70266,-4.00241 21.03578,-9.23446 30.17578,-16.11328c1.04146,-0.76342 1.47763,-2.10756 1.08287,-3.33703c-0.39476,-1.22947 -1.5319,-2.06845 -2.82311,-2.08289c-0.67588,-0.00753 -1.3345,0.21339 -1.86914,0.62695c-8.73032,6.57049 -18.78796,11.56472 -29.28516,15.38086c-9.13179,-18.13429 -20.6773,-36.35556 -35.16211,-52.40625c8.52056,-3.05016 17.69031,-4.72852 27.25195,-4.72852zM62.81836,22.125c14.51658,15.71238 26.10793,33.86064 35.2793,52.00781c-34.53545,11.00729 -71.43493,10.09019 -82.16016,9.52148c4.21611,-27.50487 22.30813,-50.45856 46.88086,-61.5293zM148.50586,43.33594c-0.88424,0.00693 -1.7204,0.40356 -2.28516,1.08399c-1.41276,1.6531 -2.84733,3.24544 -4.33594,4.72265c-1.1763,1.16821 -1.18286,3.06882 -0.01465,4.24512c1.16821,1.1763 3.06882,1.18286 4.24512,0.01465c1.6494,-1.63678 3.18482,-3.34919 4.66406,-5.08008c0.78393,-0.88761 0.97242,-2.15329 0.48115,-3.23081c-0.49128,-1.07752 -1.5704,-1.76525 -2.75459,-1.75552zM100.83984,79.70508c3.57504,7.45946 6.71978,14.8528 9.5332,22.04883c-14.44657,3.14466 -26.64218,8.72157 -36.5918,15.26953c-19.40141,12.76831 -30.47273,28.7126 -35.00391,36.26367c-14.68234,-14.66592 -23.77734,-34.92418 -23.77734,-57.28711c0,-2.14177 0.10585,-4.25725 0.26953,-6.35742c10.6909,0.66071 49.09859,2.08907 85.57031,-9.9375zM133.23047,104.98828c1.70843,-0.03187 3.44455,-0.02554 5.20898,0.01758c11.21864,0.27415 23.59804,2.14598 37.14844,5.99414c-4.51149,24.02611 -19.64067,44.32322 -40.33008,55.82813c-1.55659,-8.95804 -6.22573,-32.24371 -16.66992,-60.62695c4.64151,-0.6922 9.5173,-1.11728 14.64258,-1.21289zM112.4707,107.29102c11.41377,30.71824 16.06749,55.68497 17.17969,62.37305c-10.25445,4.69885 -21.64433,7.33594 -33.65039,7.33594c-20.13296,0 -38.54549,-7.38745 -52.72266,-19.57031c3.77845,-6.48247 14.55389,-22.72859 33.80273,-35.39648c9.61471,-6.32755 21.32021,-11.79541 35.39063,-14.74219zM34.00781,115.55859c-0.37016,-0.00297 -0.73768,0.06259 -1.08399,0.19336l-5.64258,2.05078c-1.00823,0.36613 -1.74449,1.24242 -1.93134,2.29867c-0.18685,1.05625 0.20411,2.13194 1.02555,2.82173c0.82144,0.68979 1.94853,0.88885 2.95657,0.52218l5.64258,-2.05664c1.37361,-0.48376 2.20148,-1.88407 1.96323,-3.32076c-0.23824,-1.43669 -1.47379,-2.49483 -2.93003,-2.50932zM40.58789,128.92383c-0.57227,0.01139 -1.12933,0.18624 -1.60547,0.50391l-5.03321,3.26953c-0.89941,0.58391 -1.41891,1.60336 -1.36275,2.67422c0.05617,1.07086 0.67946,2.03037 1.63502,2.51699c0.95556,0.48662 2.09816,0.42638 2.99726,-0.15801l5.02734,-3.26953c1.13885,-0.71865 1.65937,-2.10805 1.27305,-3.39809c-0.38633,-1.29004 -1.58485,-2.16464 -2.93125,-2.13902zM62.07422,149.53711c-1.09561,-0.02915 -2.11993,0.54141 -2.67187,1.48828l-3.08789,5.14453c-0.60791,0.91988 -0.66229,2.09908 -0.14161,3.07101c0.52068,0.97192 1.5325,1.57994 2.6351,1.58347c1.1026,0.00353 2.11829,-0.59801 2.64518,-1.56658l3.09375,-5.14453c0.56429,-0.91337 0.59752,-2.05865 0.08715,-3.0032c-0.51037,-0.94456 -1.48656,-1.54441 -2.5598,-1.57297zM75.58594,155.73047c-1.31393,-0.00012 -2.47507,0.85471 -2.86523,2.10938l-1.85742,5.70703c-0.33193,1.0195 -0.0947,2.13864 0.6223,2.93579c0.717,0.79716 1.80484,1.15121 2.85369,0.92877c1.04884,-0.22244 1.89933,-0.98757 2.23104,-2.00714l1.85742,-5.70703c0.31182,-0.91638 0.16237,-1.9269 -0.40136,-2.71379c-0.56372,-0.78689 -1.47246,-1.25347 -2.44044,-1.253zM90.13477,158.70703c-1.53743,0.04401 -2.79258,1.24349 -2.90625,2.77734l-0.52734,5.97656c-0.11307,1.0778 0.36387,2.13282 1.2477,2.75994c0.88383,0.62713 2.03716,0.72889 3.01715,0.26622c0.97999,-0.46267 1.6343,-1.41787 1.71171,-2.49882l0.52734,-5.97656c0.08799,-0.85934 -0.19868,-1.71491 -0.78665,-2.34776c-0.58797,-0.63285 -1.42018,-0.98157 -2.28366,-0.95692z"/></g></g></svg>
