<?xml version="1.0" encoding="utf-8"?>
<!-- Generator: Adobe Illustrator 23.0.2, SVG Export Plug-In . SVG Version: 6.00 Build 0)  -->
<svg version="1.1" id="Layer_1" xmlns="http://www.w3.org/2000/svg" xmlns:xlink="http://www.w3.org/1999/xlink" x="0px" y="0px"
	 viewBox="0 0 1920 1080" style="enable-background:new 0 0 1920 1080;" xml:space="preserve">
<style type="text/css">
	.st0{fill:#424242;}
	.st1{fill:#FFFFFF;}
	.st2{fill:#E0E0E0;}
	.st3{fill:#E0E0E0;stroke:#E0E0E0;stroke-miterlimit:10;}
	.st4{fill:#434343;}
	.st5{fill:#F5D23E;}
	.st6{fill:#FFFFFF;stroke:#E0E0E0;stroke-miterlimit:10;}
	.st7{fill:#434343;stroke:#E0E0E0;stroke-miterlimit:10;}
	.st8{fill:none;stroke:#F5D23E;stroke-width:32;stroke-miterlimit:10;}
	.st9{fill:none;stroke:#434343;stroke-width:32;stroke-linejoin:round;stroke-miterlimit:10;}
	.st10{fill:#434343;stroke:#434343;stroke-miterlimit:10;}
</style>
<path class="st0" d="M377,308c23.87,0.61,47.74,56.95,49,107c0.31,12.36,2.95,117.16-72,144c-57,20.41-131.3-14.14-146-69
	c-9.96-37.18,8.19-80.95,36-103c29.31-23.24,54.61-10.67,92-41C361.9,324.98,363.67,307.66,377,308z"/>
<path class="st0" d="M632.89,102.71c116.15-11.04,146.64,74.95,255.77,68.09c119.15-7.49,135.1-113.28,243.54-133.08
	c140.89-25.72,316.33,115.9,384.82,276.21c99.69,233.37-15.69,533.53-177.61,594.83c-103.19,39.07-162.73-42.57-322.69-1.55
	c-144.38,37.02-151.21,117.7-257.21,130.11c-193.13,22.6-435.45-214.25-409.28-374.21c15.14-92.54,111.86-108.71,121.63-224.54
	c8.26-97.94-56.95-133.22-32.01-207.4C464.49,157.87,555.82,110.04,632.89,102.71z"/>
<g>
	<g>
		<path class="st1" d="M901.3,665.86L446.85,626.1c-20.16-1.76-36.5-19.53-36.5-39.69V257.64c0-20.16,16.34-35.07,36.5-33.31
			l454.45,39.76c20.16,1.76,36.5,19.53,36.5,39.69v328.77C937.8,652.71,921.45,667.62,901.3,665.86z"/>
		<path class="st2" d="M901.28,666.06c-74.69-6.55-149.44-12.48-224.18-18.49c-74.74-5.98-149.45-12.33-224.15-18.79
			c-2.35-0.22-4.63-0.36-7.04-0.64c-1.22-0.19-2.46-0.29-3.67-0.56c-1.2-0.3-2.41-0.55-3.6-0.89c-4.75-1.4-9.2-3.7-13.14-6.66
			c-7.88-5.91-13.74-14.51-16.08-24.14c-0.14-0.6-0.32-1.2-0.43-1.8l-0.28-1.84l-0.27-1.84l-0.1-1.85l-0.09-1.86
			c-0.03-0.62-0.01-1.18-0.01-1.77l0-3.51l0-14.06l0.04-28.12l0.2-112.47l0.29-112.47l0.22-56.23c0.02-4.82,0.89-9.73,2.78-14.21
			c1.87-4.49,4.73-8.58,8.31-11.87c3.58-3.3,7.91-5.76,12.53-7.23c4.62-1.48,9.53-1.95,14.34-1.52l56,5.13l56.01,5.06l56.01,4.99
			l56.03,4.83l56.03,4.77l56.05,4.61l112.09,9.25c2.35,0.22,4.64,0.36,7.03,0.63c1.21,0.18,2.43,0.28,3.63,0.54
			c1.19,0.29,2.39,0.54,3.56,0.87c4.7,1.37,9.12,3.64,13.03,6.56c7.84,5.82,13.65,14.36,15.98,23.9c0.14,0.6,0.31,1.19,0.43,1.79
			l0.28,1.82l0.27,1.82l0.1,1.84l0.09,1.84c0.03,0.61,0.01,1.18,0.02,1.77l0,3.51l0.01,14.06l-0.04,28.12l-0.17,56.23l-0.33,56.23
			l-0.73,112.47l-0.25,56.23c-0.02,4.71-0.84,9.45-2.66,13.81c-1.8,4.36-4.55,8.33-8.02,11.53c-3.46,3.22-7.66,5.61-12.14,7.06
			C910.76,665.98,905.97,666.46,901.28,666.06z M901.31,665.66c4.65,0.39,9.37-0.1,13.8-1.54c4.43-1.44,8.56-3.81,11.96-6.99
			c3.41-3.16,6.11-7.08,7.88-11.38c1.78-4.3,2.59-8.97,2.57-13.62l-0.25-56.23l-0.73-112.47l-0.33-56.23l-0.17-56.23L936,322.83
			l0.01-14.06l0-3.51c-0.01-0.58,0.01-1.19-0.01-1.74l-0.08-1.67l-0.08-1.67l-0.25-1.66l-0.25-1.66c-0.11-0.55-0.27-1.08-0.4-1.63
			c-2.11-8.69-7.44-16.55-14.6-21.96c-3.58-2.7-7.63-4.81-11.92-6.08c-1.07-0.31-2.17-0.54-3.26-0.82
			c-1.09-0.24-2.21-0.33-3.32-0.51c-2.26-0.28-4.65-0.44-6.96-0.66l-111.99-10.35l-56-5.19l-56.01-5.03l-56.01-4.98l-56.03-4.82
			l-56.03-4.74l-56.04-4.67c-4.54-0.36-9.13,0.13-13.43,1.55c-4.29,1.41-8.29,3.73-11.58,6.82c-3.29,3.08-5.89,6.88-7.58,11.05
			c-1.71,4.18-2.47,8.68-2.45,13.22l0.22,56.23l0.29,112.47l0.2,112.47l0.04,28.12l0,14.06l0,3.51c0.01,0.58-0.01,1.19,0.01,1.74
			l0.09,1.66l0.08,1.65l0.25,1.64l0.25,1.64c0.11,0.54,0.26,1.07,0.39,1.61c2.09,8.61,7.38,16.4,14.5,21.72
			c3.55,2.66,7.56,4.73,11.81,5.98c1.06,0.3,2.15,0.53,3.22,0.8c1.08,0.24,2.19,0.32,3.28,0.5c2.24,0.27,4.64,0.43,6.96,0.65
			c74.69,6.61,149.36,13.33,224.01,20.42C751.98,652,826.62,659.14,901.31,665.66z"/>
	</g>
	<polygon class="st3" points="592.78,608.71 453.58,596.53 453.58,268.61 592.78,280.79 	"/>
	<polygon class="st4" points="886.37,328.13 628.83,305.6 628.83,283.95 886.37,306.48 	"/>
	<polygon class="st3" points="809.8,342.32 628.83,326.48 628.83,315.66 809.8,331.49 	"/>
	<polygon class="st4" points="745.61,367.64 628.83,357.42 628.83,338.86 745.61,349.07 	"/>
	<polygon class="st5" points="745.61,526.18 628.83,515.96 628.83,365.93 745.61,376.14 	"/>
	<polygon class="st3" points="896.11,615.91 779.33,605.69 779.33,392.24 896.11,402.46 	"/>
	<polygon class="st6" points="886.44,486.68 789,478.16 789,414.74 886.44,423.27 	"/>
	<polygon class="st6" points="886.44,577.94 789,569.42 789,506 886.44,514.52 	"/>
	<polygon class="st7" points="881.42,503.26 794.02,495.61 794.02,486.33 881.42,493.98 	"/>
	<polygon class="st7" points="881.42,594.52 794.02,586.87 794.02,577.59 881.42,585.23 	"/>
	<polygon class="st6" points="579.66,377.86 466.74,367.99 466.74,291.42 579.66,301.3 	"/>
	<polygon class="st6" points="579.66,472.99 466.74,463.11 466.74,386.55 579.66,396.43 	"/>
	
		<ellipse transform="matrix(0.7224 -0.6915 0.6915 0.7224 -226.2715 510.9188)" class="st8" cx="523.18" cy="537.27" rx="32.57" ry="35.55"/>
	
		<ellipse transform="matrix(0.7224 -0.6915 0.6915 0.7224 -226.2715 510.9188)" class="st9" cx="523.18" cy="537.27" rx="8.88" ry="9.7"/>
	
		<ellipse transform="matrix(0.7224 -0.6915 0.6915 0.7224 -201.7641 593.3629)" class="st4" cx="638.11" cy="547.97" rx="8.14" ry="8.89"/>
	
		<ellipse transform="matrix(0.7224 -0.6915 0.6915 0.7224 -194.5861 617.0275)" class="st4" cx="671.17" cy="550.86" rx="8.14" ry="8.89"/>
	
		<ellipse transform="matrix(0.7224 -0.6915 0.6915 0.7224 -187.408 640.6922)" class="st4" cx="704.24" cy="553.75" rx="8.14" ry="8.89"/>
	
		<ellipse transform="matrix(0.7224 -0.6915 0.6915 0.7224 -219.4118 600.4478)" class="st4" cx="638.11" cy="573.49" rx="8.14" ry="8.89"/>
	
		<ellipse transform="matrix(0.7224 -0.6915 0.6915 0.7224 -212.2337 624.1124)" class="st4" cx="671.17" cy="576.38" rx="8.14" ry="8.89"/>
	<polygon class="st4" points="544.15,314.05 477.64,308.23 477.64,302.81 544.15,308.63 	"/>
	<polygon class="st4" points="544.15,409.95 477.64,404.13 477.64,398.71 544.15,404.53 	"/>
	<polygon class="st4" points="568.12,326.97 477.64,319.06 477.64,313.64 568.12,321.56 	"/>
	<polygon class="st4" points="523.27,418.17 477.64,414.18 477.64,408.77 523.27,412.76 	"/>
	
		<ellipse transform="matrix(0.7224 -0.6915 0.6915 0.7224 -68.7958 722.5455)" class="st5" cx="865.48" cy="446.95" rx="8.88" ry="9.7"/>
	
		<ellipse transform="matrix(0.7224 -0.6915 0.6915 0.7224 -143.1027 707.9779)" class="st5" cx="810.19" cy="532.21" rx="8.88" ry="9.7"/>
</g>
<g>
	<g>
		<polygon class="st4" points="758.43,1005.95 758.43,989.03 843.19,989.03 852.24,989.03 852.24,1005.95 		"/>
		<path class="st2" d="M758.29,1006.09l-0.3-17.06l-0.01-0.44l0.45-0.01l46.9-0.65l46.9-0.51l1.54-0.02l0.06,1.62
			c0.11,2.82,0.18,5.64,0.24,8.46c0.06,2.82,0.14,5.64,0.17,8.46l0.02,1.98l-2.02,0.03c-15.87,0.22-31.85,0.07-47.62-0.29
			C788.85,1007.32,773.28,1006.76,758.29,1006.09z M758.57,1005.8c16.27-0.68,31.97-1.23,47.47-1.58
			c15.5-0.35,30.79-0.51,46.19-0.29l-2.01,2.01c0.02-2.82,0.11-5.64,0.17-8.46c0.06-2.82,0.13-5.64,0.24-8.46l1.6,1.6l-46.9-0.51
			l-46.9-0.65l0.44-0.44L758.57,1005.8z"/>
	</g>
	<g>
		<polygon class="st4" points="842.24,900.61 805.33,900.61 765.35,900.61 765.35,989.03 842.24,988.26 		"/>
		<path class="st2" d="M842.1,900.75l-76.75,0.8l0.95-0.95l0.66,88.42l-1.62-1.6l38.44-0.74l19.22-0.31l19.22-0.14l-2,2.02
			c0.01-7.18,0.15-14.37,0.24-21.57l0.44-21.7l0.56-21.94L842.1,900.75z M842.38,900.46l0.64,21.52l0.56,21.89
			c0.18,7.34,0.32,14.73,0.44,22.13c0.08,7.41,0.23,14.83,0.24,22.25l0,1.99l-2,0.03l-19.22,0.24l-19.22,0.08l-38.45,0.03l-1.63,0
			l0.01-1.6l0.66-88.42l0.01-0.96l0.94,0.01L842.38,900.46z"/>
	</g>
	<g>
		<path class="st5" d="M799.18,783.73c0,0,103.03-150.71-19.99-155.32C656.16,623.8,799.18,783.73,799.18,783.73z"/>
		<path class="st2" d="M799.17,783.53c-0.06-0.06-0.11,0.01-0.04-0.08l0.11-0.17l0.22-0.34l0.44-0.68l0.87-1.36l1.72-2.74
			c1.14-1.83,2.25-3.68,3.35-5.54c2.2-3.71,4.32-7.47,6.37-11.27c4.1-7.59,7.93-15.33,11.39-23.22c3.47-7.89,6.54-15.95,9.07-24.17
			c2.52-8.22,4.44-16.63,5.34-25.13c0.89-8.48,0.73-17.16-1.57-25.3c-1.15-4.06-2.85-7.95-5.13-11.46c-2.27-3.51-5.13-6.63-8.4-9.25
			c-6.54-5.29-14.63-8.4-22.85-10.33c-8.28-1.88-16.85-2.53-25.38-2.58c-2.13-0.02-4.26,0.11-6.38,0.18
			c-2.11,0.2-4.24,0.28-6.32,0.62c-4.19,0.52-8.32,1.44-12.21,2.87c-3.88,1.42-7.54,3.41-10.5,6.12c-0.79,0.63-1.4,1.43-2.09,2.15
			c-0.36,0.35-0.63,0.77-0.92,1.18l-0.88,1.21c-0.48,0.87-1.02,1.71-1.44,2.62c-0.37,0.93-0.85,1.81-1.1,2.79
			c-1.27,3.81-1.68,7.93-1.51,12.06c0.16,4.13,0.9,8.28,1.9,12.36c2.02,8.18,5.18,16.15,8.86,23.85
			c7.24,15.5,16.46,30.11,26.14,44.33c4.86,7.11,9.91,14.1,15.11,20.97c2.58,3.45,5.2,6.88,7.87,10.27l4.03,5.07l2.03,2.52
			l1.02,1.26l0.51,0.63C799.02,783.21,799.05,783.29,799.17,783.53z M799.19,783.93c-0.24-0.16-0.57-0.49-0.72-0.66l-0.55-0.59
			l-1.1-1.19l-2.19-2.39l-4.3-4.86c-2.84-3.26-5.65-6.55-8.41-9.88c-5.49-6.69-10.81-13.52-15.96-20.49
			c-5.16-6.96-10.02-14.15-14.65-21.49c-4.61-7.35-8.98-14.89-12.82-22.73c-3.8-7.85-7.11-16.01-9.28-24.59
			c-1.07-4.29-1.79-8.71-1.94-13.21c-0.14-4.49,0.32-9.1,1.83-13.48c0.32-1.11,0.87-2.15,1.33-3.21c0.5-1.05,1.14-2.03,1.73-3.03
			l1.04-1.4c0.35-0.46,0.68-0.95,1.09-1.35c0.81-0.83,1.54-1.74,2.46-2.46c3.47-3.07,7.59-5.2,11.82-6.68
			c4.24-1.49,8.62-2.38,13-2.86c2.19-0.33,4.38-0.37,6.57-0.55c2.19-0.04,4.38-0.14,6.57-0.09c8.73,0.14,17.48,0.91,26.03,2.95
			c4.27,1.01,8.47,2.43,12.51,4.21c4.04,1.78,7.88,4.09,11.32,6.92c3.44,2.82,6.45,6.18,8.82,9.95c2.38,3.76,4.13,7.9,5.28,12.16
			c2.31,8.56,2.35,17.49,1.34,26.13c-1.05,8.66-3.13,17.14-5.81,25.39c-2.68,8.25-5.89,16.31-9.5,24.18
			c-3.6,7.87-7.55,15.57-11.78,23.11c-2.12,3.77-4.3,7.5-6.56,11.19c-1.13,1.84-2.27,3.68-3.44,5.5l-1.76,2.72l-0.9,1.35l-0.45,0.67
			l-0.23,0.34l-0.11,0.17C799.45,783.7,799.33,783.88,799.19,783.93z"/>
	</g>
	<g>
		<path class="st2" d="M780.9,628.32c1.3,2.52,2.21,5.2,3,7.9c0.78,2.7,1.48,5.43,2.07,8.18c1.22,5.49,2.19,11.02,3.07,16.57
			c1.75,11.09,3.11,22.24,4.34,33.4c2.44,22.32,4.19,44.7,5.76,67.09c1.55,22.39,2.83,44.8,4.02,67.21
			c1.21,22.41,2.16,44.83,2.59,67.28l0.11,5.81l-3.59-4.52l-13.25-16.7c-4.42-5.57-8.85-11.12-13.2-16.74l-13.09-16.83
			c-4.31-5.66-8.67-11.27-12.92-16.97l0.31-0.25c4.71,5.32,9.33,10.73,13.99,16.1l13.82,16.23c4.63,5.4,9.16,10.87,13.72,16.32
			l13.66,16.36l-3.48,1.29l-2.29-67.23c-0.77-22.41-1.78-44.82-3.02-67.21c-1.24-22.39-2.75-44.76-4.75-67.09
			c-1.03-11.16-2.18-22.31-3.73-33.41c-0.78-5.55-1.65-11.08-2.77-16.57c-0.54-2.75-1.18-5.47-1.91-8.17
			c-0.73-2.69-1.6-5.37-2.83-7.86L780.9,628.32z"/>
	</g>
	<g>
		<line class="st5" x1="792.26" y1="677.53" x2="831.21" y2="649.72"/>
		<path class="st2" d="M792.14,677.37c3.06-2.58,6.18-5.07,9.27-7.6c3.11-2.51,6.24-4.99,9.39-7.44c3.14-2.46,6.09-5.2,9.5-7.28
			c1.69-1.07,3.43-2.06,5.21-2.99c1.78-0.93,3.61-1.8,5.57-2.49l0.23,0.33c-1.29,1.63-2.71,3.07-4.17,4.46
			c-1.46,1.38-2.97,2.71-4.52,3.96c-3.08,2.56-6.62,4.45-9.97,6.63c-3.34,2.18-6.7,4.34-10.09,6.46c-3.4,2.1-6.77,4.24-10.2,6.3
			L792.14,677.37z"/>
	</g>
	<g>
		<line class="st5" x1="794.7" y1="717.73" x2="741.17" y2="700.62"/>
		<path class="st2" d="M794.64,717.92c-4.56-1.12-9.08-2.35-13.62-3.51c-4.53-1.2-9.05-2.44-13.56-3.71
			c-4.51-1.26-9.13-2.19-13.5-3.9c-2.19-0.84-4.37-1.71-6.51-2.7c-2.15-0.98-4.27-2.03-6.32-3.29l0.12-0.38
			c2.4,0.17,4.74,0.54,7.06,0.99c2.32,0.43,4.6,0.99,6.87,1.57c4.55,1.15,8.85,3.07,13.26,4.66c4.41,1.58,8.81,3.2,13.2,4.85
			c4.38,1.68,8.77,3.31,13.14,5.04L794.64,717.92z"/>
	</g>
	<g>
		<path class="st5" d="M792.26,688.79"/>
	</g>
	<g>
		<path class="st2" d="M791.4,688.21c3.7-2.34,7.44-4.59,11.16-6.89c3.74-2.27,7.49-4.51,11.26-6.72c3.77-2.22,7.37-4.74,11.35-6.54
			c1.98-0.93,4-1.78,6.05-2.57c2.06-0.79,4.15-1.5,6.34-2.03l0.19,0.35c-1.65,1.54-3.41,2.88-5.2,4.16
			c-1.79,1.28-3.62,2.49-5.49,3.62c-3.71,2.32-7.8,3.93-11.73,5.84c-3.93,1.92-7.87,3.8-11.83,5.66c-3.97,1.83-7.92,3.7-11.92,5.48
			L791.4,688.21z"/>
	</g>
	<g>
		<path class="st5" d="M843.78,772.97h73.82C917.59,772.97,919.13,831.4,843.78,772.97z"/>
		<path class="st2" d="M843.59,772.9c12.09-0.1,24.23-0.34,36.58-0.66c12.35-0.32,24.91-0.53,37.43-0.71l1.42-0.02l0.01,1.42
			c0.03,4.31-0.6,8.43-1.93,12.51c-0.67,2.03-1.59,3.99-2.73,5.85c-1.15,1.86-2.64,3.53-4.32,5.01c-3.48,2.85-7.95,4.41-12.31,4.61
			c-4.38,0.26-8.63-0.55-12.66-1.74c-4.06-1.16-7.83-2.93-11.54-4.75c-1.84-0.93-3.62-1.97-5.42-2.98
			c-1.76-1.06-3.48-2.18-5.22-3.26c-3.38-2.31-6.74-4.64-9.92-7.2l-2.4-1.89c-0.79-0.62-1.67-1.41-2.48-2.12
			C846.48,775.51,845.03,774.09,843.59,772.9z M843.97,773.03c1.8,1.24,3.59,2.26,5.18,3.23l4.99,3.1c3.4,2.18,6.88,4.22,10.37,6.21
			c6.98,3.96,14.23,7.45,21.74,9.62l1.4,0.42l1.42,0.3l1.42,0.31l0.71,0.15l0.71,0.09c0.94,0.11,1.89,0.29,2.84,0.35
			c0.94,0.01,1.89,0.08,2.82,0.06c3.73-0.14,7.32-1.21,10.23-3.4c1.4-1.16,2.69-2.49,3.72-4.05c1.02-1.57,1.89-3.26,2.56-5.07
			c1.3-3.59,2.01-7.57,2.09-11.37l1.43,1.4c-12.09-0.18-24.13-0.39-36.39-0.71C868.94,773.37,856.48,773.13,843.97,773.03z"/>
	</g>
	<g>
		<path class="st2" d="M801.59,838.09c3.23-5.61,6.56-11.16,9.83-16.74l10-16.63c3.36-5.53,6.42-11.25,10.17-16.53
			c1.87-2.64,3.75-5.27,5.75-7.83c1.98-2.57,4.03-5.09,6.27-7.5l0.34,0.22c-1.27,3.03-2.72,5.94-4.24,8.81
			c-1.51,2.88-3.12,5.68-4.75,8.48c-3.25,5.6-7.19,10.75-10.84,16.09l-11.01,15.98c-3.73,5.29-7.41,10.61-11.18,15.88L801.59,838.09
			z"/>
	</g>
	<g>
		<path class="st5" d="M749.97,829.87l-89.19-4.61C660.78,825.25,662.32,885.23,749.97,829.87z"/>
		<path class="st2" d="M749.78,829.92c-15.09-0.69-30.14-1.21-44.98-1.65l-22.11-0.72l-21.98-0.82l1.55-1.51
			c0.68,8.6,4.74,17.51,12,22.03c3.6,2.26,7.8,3.49,12.12,3.86c4.34,0.36,8.76-0.07,13.15-0.8c8.78-1.63,17.38-4.7,25.72-8.36
			l1.58-0.66l1.55-0.73l3.1-1.46c1.03-0.5,2.09-0.94,3.1-1.47l3.06-1.56c2.04-1.03,4.16-2.06,5.99-3.02
			C745.52,832.09,747.64,831.13,749.78,829.92z M750.16,829.82c-1.79,1.18-3.6,2.62-5.63,4.05c-2.07,1.49-3.98,2.65-5.94,3.89
			c-1.96,1.22-3.92,2.46-5.95,3.56l-3.03,1.69l-1.52,0.84l-1.55,0.78c-8.25,4.22-16.96,7.8-26.25,9.7
			c-4.65,0.87-9.46,1.32-14.3,0.81c-4.82-0.47-9.66-2.03-13.76-4.82l-0.77-0.51l-0.72-0.59l-1.43-1.18
			c-0.85-0.89-1.79-1.7-2.53-2.68c-1.6-1.86-2.88-3.97-3.93-6.14c-1.05-2.18-1.87-4.46-2.45-6.78c-0.58-2.35-0.97-4.64-1.08-7.16
			l-0.07-1.62l1.62,0.11l22.62,1.49l22.48,1.58C720.84,827.95,735.52,828.96,750.16,829.82z"/>
	</g>
	<g>
		<path class="st2" d="M677.87,851.13c1.63-2.21,3.33-4.36,5-6.54c1.69-2.16,3.41-4.29,5.15-6.4c0.87-1.06,1.68-2.16,2.51-3.25
			c0.84-1.09,1.76-2.09,2.78-3.01c1.02-0.92,2.08-1.79,3.23-2.59c1.13-0.81,2.32-1.56,3.67-2.17l0.29,0.27
			c-0.51,1.39-1.18,2.63-1.91,3.82c-0.72,1.2-1.52,2.32-2.36,3.4c-0.85,1.08-1.78,2.07-2.81,2.98c-1.03,0.91-2.08,1.8-3.07,2.74
			c-1.98,1.88-3.99,3.74-6.02,5.58c-2.06,1.81-4.07,3.67-6.17,5.45L677.87,851.13z"/>
	</g>
	<g>
		<path class="st2" d="M882.73,772.82c2.22,1.73,4.37,3.54,6.56,5.31c2.16,1.79,4.3,3.61,6.42,5.45c1.06,0.92,2.17,1.78,3.26,2.67
			c1.09,0.89,2.09,1.86,3.01,2.92c0.92,1.07,1.79,2.17,2.58,3.36c0.8,1.18,1.56,2.41,2.15,3.8l-0.28,0.29
			c-1.4-0.57-2.65-1.3-3.84-2.08c-1.2-0.77-2.33-1.62-3.41-2.52c-1.08-0.9-2.07-1.88-2.98-2.95c-0.9-1.08-1.79-2.17-2.73-3.21
			c-1.88-2.08-3.74-4.18-5.58-6.31c-1.81-2.15-3.66-4.26-5.44-6.45L882.73,772.82z"/>
	</g>
</g>
<path class="st7" d="M878.9,980.27c-5.55,1.21-10.32,6.96-11.72,12.75c-1.72,7.11,1.91,13.38,5.81,16.31
	c1.96,1.47,3.93,2.06,5.23,2.32l49.32,10.02c0,0,16.08-0.51,11.23-10.33c-4.85-9.81-29.93-21.21-29.93-21.21L878.9,980.27z"/>
<g>
	<path class="st1" d="M883.77,976.9c-2.77-0.78-5.63-1.6-7.31-0.13c-2.36,2.06-1.3,7.66,0.66,11.19
		c5.07,9.14,21.33,13.73,29.33,6.98c0.47-0.4,4.83-4.17,4.02-8.1C909.83,983.74,906.55,983.36,883.77,976.9z"/>
	<path class="st2" d="M883.71,977.09c-1.82-0.46-3.77-0.96-5.48-0.58c-1.75,0.38-2.22,2.12-2.05,3.79c0.16,1.7,0.77,3.4,1.52,4.96
		c0.38,0.78,0.79,1.52,1.31,2.18l0.74,1l0.86,0.92c1.16,1.22,2.51,2.3,4,3.2c1.45,0.96,3.06,1.68,4.69,2.35
		c0.84,0.26,1.66,0.63,2.52,0.8l1.29,0.32l1.31,0.2c0.87,0.18,1.75,0.13,2.63,0.21l1.31-0.06l0.66-0.03l0.64-0.11
		c3.45-0.46,6.51-2.27,8.5-5.19c0.97-1.38,1.5-3,1.11-4.34c-0.24-1.07-2.15-1.89-3.83-2.55
		C898.35,981.64,891.08,978.98,883.71,977.09z M883.82,976.71c3.65,1.12,7.34,2.06,11.08,2.88c3.74,0.83,7.47,1.57,11.19,2.72
		c0.93,0.32,1.86,0.62,2.81,1.11c0.47,0.25,0.96,0.52,1.42,0.96c0.47,0.4,0.86,1,1.09,1.6c0.4,1.18,0.41,2.37,0.16,3.49
		c-0.25,1.11-0.71,2.11-1.26,3.01c-0.55,0.9-1.2,1.72-1.9,2.48c-0.36,0.38-0.71,0.75-1.13,1.1l-1.28,0.96
		c-1.77,1.16-3.76,2.03-5.81,2.39l-0.77,0.17l-0.77,0.09l-1.55,0.16c-1.02-0.01-2.07,0.08-3.08-0.06l-1.53-0.13l-1.51-0.26
		c-1.02-0.14-1.99-0.48-2.99-0.72c-1.94-0.66-3.87-1.43-5.61-2.57c-0.9-0.51-1.71-1.19-2.54-1.82c-0.4-0.33-0.77-0.73-1.15-1.09
		c-0.38-0.36-0.76-0.73-1.08-1.16l-0.99-1.26l-0.82-1.4c-0.55-0.93-0.9-1.95-1.21-2.94c-0.56-2.01-0.83-4.1-0.55-6.22
		c0.15-1.05,0.46-2.15,1.15-3.09c0.17-0.24,0.35-0.46,0.58-0.64c0.21-0.21,0.46-0.36,0.71-0.51c0.51-0.28,1.07-0.39,1.59-0.45
		c1.06-0.1,2.04,0.13,2.98,0.36C882,976.13,882.91,976.42,883.82,976.71z"/>
</g>
<path class="st7" d="M971.98,995.34c-5.55,1.21-10.32,6.96-11.72,12.75c-1.72,7.11,1.91,13.38,5.81,16.31
	c1.96,1.47,3.93,2.06,5.23,2.32l49.32,10.02c0,0,16.08-0.51,11.23-10.33c-4.85-9.81-29.93-21.21-29.93-21.21L971.98,995.34z"/>
<g>
	<path class="st1" d="M976.85,991.97c-2.77-0.78-5.63-1.6-7.31-0.13c-2.36,2.06-1.3,7.66,0.66,11.19
		c5.07,9.14,21.33,13.73,29.33,6.98c0.47-0.4,4.83-4.17,4.02-8.1C1002.9,998.81,999.62,998.43,976.85,991.97z"/>
	<path class="st2" d="M976.79,992.16c-1.82-0.46-3.77-0.96-5.48-0.58c-1.75,0.38-2.22,2.12-2.05,3.79c0.16,1.7,0.77,3.4,1.52,4.96
		c0.38,0.78,0.79,1.52,1.31,2.18l0.74,1l0.86,0.92c1.16,1.22,2.51,2.3,4,3.2c1.45,0.96,3.06,1.68,4.69,2.35
		c0.84,0.26,1.66,0.63,2.52,0.8l1.29,0.32l1.31,0.2c0.87,0.18,1.75,0.13,2.63,0.21l1.31-0.06l0.66-0.03l0.64-0.11
		c3.45-0.46,6.51-2.27,8.5-5.19c0.97-1.38,1.5-3,1.11-4.34c-0.24-1.07-2.15-1.89-3.83-2.55
		C991.42,996.71,984.16,994.05,976.79,992.16z M976.9,991.78c3.65,1.12,7.34,2.06,11.08,2.88c3.74,0.83,7.47,1.57,11.19,2.72
		c0.93,0.32,1.86,0.62,2.81,1.11c0.47,0.25,0.96,0.52,1.42,0.96c0.47,0.4,0.86,1,1.09,1.6c0.4,1.18,0.41,2.37,0.16,3.49
		c-0.25,1.11-0.71,2.11-1.26,3.01c-0.55,0.9-1.2,1.72-1.9,2.48c-0.36,0.38-0.71,0.75-1.13,1.1l-1.28,0.96
		c-1.77,1.16-3.76,2.03-5.81,2.39l-0.77,0.17l-0.77,0.09l-1.55,0.16c-1.02-0.01-2.07,0.08-3.08-0.06l-1.53-0.13l-1.51-0.26
		c-1.02-0.14-1.99-0.48-2.99-0.72c-1.94-0.66-3.87-1.43-5.61-2.57c-0.9-0.51-1.71-1.19-2.54-1.82c-0.4-0.33-0.77-0.73-1.15-1.09
		c-0.38-0.36-0.76-0.73-1.08-1.16l-0.99-1.26l-0.82-1.4c-0.55-0.93-0.9-1.95-1.21-2.94c-0.56-2.01-0.83-4.1-0.55-6.22
		c0.15-1.05,0.46-2.15,1.15-3.09c0.17-0.24,0.35-0.46,0.58-0.64c0.21-0.21,0.46-0.36,0.71-0.51c0.51-0.28,1.07-0.39,1.59-0.45
		c1.06-0.1,2.04,0.13,2.98,0.36C975.08,991.2,975.99,991.49,976.9,991.78z"/>
</g>
<g>
	<g>
		<path class="st1" d="M1508.95,673.34l-520.89,45.57c-23.11,2.02-41.84-15.07-41.84-38.18V261.79c0-23.11,18.73-43.47,41.84-45.5
			l520.89-45.57c23.11-2.02,41.84,15.07,41.84,38.18v418.95C1550.78,650.95,1532.05,671.32,1508.95,673.34z"/>
		<path class="st2" d="M1508.96,673.54c-89.11,7.78-178.17,16.19-267.24,24.5c-44.53,4.21-89.07,8.21-133.62,12.28l-66.82,5.99
			l-33.41,2.97l-16.71,1.48c-1.41,0.11-2.74,0.28-4.24,0.31l-2.2,0.08c-0.37,0.01-0.73,0.04-1.1,0.03l-1.1-0.07l-2.2-0.14
			c-0.37-0.03-0.74-0.03-1.1-0.09l-1.09-0.18c-1.45-0.27-2.92-0.42-4.33-0.87c-5.71-1.47-11.1-4.23-15.62-8.04
			c-4.52-3.8-8.17-8.65-10.57-14.05c-2.42-5.4-3.54-11.33-3.54-17.18l0-16.77l0.05-67.09l0.2-134.18l0.29-134.18l0.25-67.1
			c0.14-11.58,5.05-22.83,12.91-31.16c7.82-8.38,18.7-13.94,30.17-14.88l66.85-5.61l66.85-5.69l66.84-5.76l66.83-5.92l66.82-5.98
			l66.81-6.14l66.81-6.13l33.4-3.06l16.7-1.53c1.4-0.11,2.75-0.29,4.23-0.32l2.18-0.09c0.36-0.01,0.73-0.04,1.09-0.03l1.09,0.07
			l2.18,0.14c0.36,0.03,0.73,0.03,1.09,0.08l1.08,0.18c1.43,0.26,2.89,0.41,4.28,0.86c5.64,1.45,10.98,4.16,15.45,7.93
			c4.48,3.75,8.1,8.54,10.49,13.88c2.41,5.34,3.54,11.21,3.54,17.02l0.01,16.77l-0.02,67.09l-0.17,67.09l-0.33,67.09l-0.73,134.18
			l-0.28,67.09c-0.13,11.29-4.86,22.31-12.55,30.49C1530.84,667.1,1520.19,672.59,1508.96,673.54z M1508.93,673.14
			c11.12-0.97,21.67-6.42,29.22-14.58c7.58-8.12,12.28-19.04,12.34-30.18l-0.22-67.08l-0.73-134.18l-0.33-67.09l-0.17-67.09
			l-0.02-67.09l0.01-16.77c-0.01-5.37-1-10.72-3.17-15.6c-2.16-4.88-5.43-9.25-9.51-12.69c-4.07-3.45-8.92-5.95-14.09-7.31
			c-1.27-0.43-2.61-0.56-3.93-0.81l-0.99-0.17c-0.33-0.05-0.67-0.05-1-0.08l-2.01-0.14l-1-0.07c-0.33-0.01-0.67,0.02-1.01,0.02
			l-2.01,0.07c-1.32,0.01-2.75,0.18-4.13,0.28l-16.71,1.39l-33.43,2.78l-66.86,5.56l-66.86,5.56l-66.84,5.72l-66.84,5.77
			l-66.83,5.93l-66.82,6l-66.81,6.08c-10.89,0.98-21.19,6.35-28.56,14.37c-7.41,7.98-11.94,18.66-11.98,29.52l0.2,67.07l0.29,134.18
			l0.2,134.18l0.05,67.09l0,16.77c0.01,5.33,1.01,10.62,3.17,15.44c2.15,4.82,5.4,9.13,9.43,12.51c4.03,3.39,8.82,5.85,13.93,7.19
			c1.26,0.42,2.58,0.55,3.88,0.79l0.98,0.17c0.33,0.05,0.66,0.05,0.99,0.08l1.98,0.13l0.99,0.07c0.33,0.01,0.66-0.02,0.99-0.03
			l1.99-0.07c1.3-0.01,2.74-0.19,4.12-0.29l16.71-1.44l33.42-2.88l66.85-5.7c44.57-3.73,89.13-7.52,133.72-11.11
			C1330.65,688.14,1419.82,680.95,1508.93,673.14z"/>
	</g>
	<polygon class="st4" points="1507.79,247.5 989.21,292.87 989.21,258.3 1507.79,212.93 	"/>
	<polygon class="st4" points="1058.35,352.42 1025.55,355.29 1025.55,322.49 1058.35,319.62 	"/>
	<polygon class="st4" points="1198.12,340.19 1165.32,343.06 1165.32,310.26 1198.12,307.39 	"/>
	<polygon class="st4" points="1337.88,327.96 1305.08,330.83 1305.08,298.03 1337.88,295.16 	"/>
	<polygon class="st4" points="1477.65,314.85 1444.85,317.72 1444.85,284.92 1477.65,282.05 	"/>
	<polygon class="st2" points="1030.87,402.69 998.07,405.56 998.07,372.76 1030.87,369.89 	"/>
	<polygon class="st2" points="1086.72,397.81 1053.92,400.68 1053.92,367.88 1086.72,365.01 	"/>
	<polygon class="st2" points="1170.05,389.63 1137.25,392.5 1137.25,359.7 1170.05,356.83 	"/>
	<polygon class="st2" points="1225.89,384.74 1193.1,387.61 1193.1,354.81 1225.89,351.94 	"/>
	<polygon class="st2" points="1311.88,379.88 1279.08,382.75 1279.08,349.95 1311.88,347.08 	"/>
	<polygon class="st2" points="1367.73,374.99 1334.93,377.86 1334.93,345.06 1367.73,342.19 	"/>
	<polygon class="st2" points="1451.94,367.63 1419.14,370.5 1419.14,337.7 1451.94,334.83 	"/>
	<polygon class="st2" points="1507.79,362.74 1474.99,365.61 1474.99,332.81 1507.79,329.94 	"/>
	<polygon class="st5" points="1031.76,445.16 998.96,448.03 998.96,415.23 1031.76,412.37 	"/>
	<polygon class="st5" points="1087.61,440.28 1054.81,443.15 1054.81,410.35 1087.61,407.48 	"/>
	<polygon class="st5" points="1170.93,432.1 1138.14,434.97 1138.14,402.17 1170.93,399.3 	"/>
	<polygon class="st5" points="1226.78,427.22 1193.98,430.09 1193.98,397.29 1226.78,394.42 	"/>
	<polygon class="st5" points="1312.77,422.35 1279.97,425.22 1279.97,392.42 1312.77,389.55 	"/>
	<polygon class="st5" points="1368.61,417.47 1335.82,420.34 1335.82,387.54 1368.61,384.67 	"/>
	<polygon class="st5" points="1452.83,410.1 1420.03,412.97 1420.03,380.17 1452.83,377.3 	"/>
	<polygon class="st5" points="1508.67,405.21 1475.88,408.08 1475.88,375.28 1508.67,372.41 	"/>
	<polygon class="st5" points="1031.76,485.94 998.96,488.81 998.96,456.01 1031.76,453.14 	"/>
	<polygon class="st5" points="1087.61,481.06 1054.81,483.92 1054.81,451.13 1087.61,448.26 	"/>
	<polygon class="st5" points="1170.93,472.88 1138.14,475.75 1138.14,442.95 1170.93,440.08 	"/>
	<polygon class="st5" points="1226.78,467.99 1193.98,470.86 1193.98,438.06 1226.78,435.19 	"/>
	<polygon class="st5" points="1312.77,463.13 1279.97,466 1279.97,433.2 1312.77,430.33 	"/>
	<polygon class="st5" points="1368.61,458.24 1335.82,461.11 1335.82,428.31 1368.61,425.44 	"/>
	<polygon class="st5" points="1452.83,450.88 1420.03,453.75 1420.03,420.95 1452.83,418.08 	"/>
	<polygon class="st5" points="1508.67,445.99 1475.88,448.86 1475.88,416.06 1508.67,413.19 	"/>
	<polygon class="st5" points="1032.65,524.87 999.85,527.74 999.85,494.94 1032.65,492.07 	"/>
	<polygon class="st5" points="1088.49,519.98 1055.69,522.85 1055.69,490.05 1088.49,487.18 	"/>
	<polygon class="st5" points="1171.82,511.81 1139.02,514.67 1139.02,481.88 1171.82,479.01 	"/>
	<polygon class="st5" points="1227.67,506.92 1194.87,509.79 1194.87,476.99 1227.67,474.12 	"/>
	<polygon class="st5" points="1313.65,502.06 1280.85,504.93 1280.85,472.13 1313.65,469.26 	"/>
	<polygon class="st5" points="1369.5,497.17 1336.7,500.04 1336.7,467.24 1369.5,464.37 	"/>
	<polygon class="st5" points="1453.71,489.8 1420.92,492.67 1420.92,459.87 1453.71,457 	"/>
	<polygon class="st5" points="1033.53,564.68 1000.73,567.55 1000.73,534.75 1033.53,531.88 	"/>
	<polygon class="st5" points="1089.38,559.8 1056.58,562.66 1056.58,529.87 1089.38,527 	"/>
	<polygon class="st5" points="1228.55,546.73 1195.75,549.6 1195.75,516.8 1228.55,513.93 	"/>
	<polygon class="st5" points="1314.54,541.87 1281.74,544.74 1281.74,511.94 1314.54,509.07 	"/>
	<polygon class="st5" points="1370.39,536.98 1337.59,539.85 1337.59,507.05 1370.39,504.18 	"/>
	<polygon class="st5" points="1454.6,529.62 1421.8,532.48 1421.8,499.69 1454.6,496.82 	"/>
	<polygon class="st5" points="1035.31,607.08 1002.51,609.95 1002.51,577.15 1035.31,574.28 	"/>
	<polygon class="st5" points="1230.33,589.13 1197.53,592 1197.53,559.2 1230.33,556.33 	"/>
	<polygon class="st5" points="1316.31,584.26 1283.51,587.13 1283.51,554.33 1316.31,551.46 	"/>
	<polygon class="st5" points="1456.37,572.01 1423.57,574.88 1423.57,542.08 1456.37,539.21 	"/>
	<polygon class="st5" points="1231.21,629.83 1198.41,632.7 1198.41,599.9 1231.21,597.03 	"/>
</g>
<g>
	<path class="st1" d="M1077.2,404.31l30.93-25.35c0,0,0-12.46,3.44-13.75c3.44-1.29,8.59,0,8.59,0l15.47-20.62c0,0,3.87-2.58,4.3,0
		c0.21,1.29-2.26,6.44-4.78,11.28c-2.52,4.83-5.1,9.34-5.1,9.34s10.31,6.44,10.74,8.16c0.43,1.72-17.18,16.33-18.9,16.33
		c-1.72,0-6.01-0.86-6.01-0.86l-27.07,27.92L1077.2,404.31z"/>
	<path class="st2" d="M1077,404.29l7.08-6.55c2.43-2.21,4.87-4.47,7.41-6.72c2.51-2.26,5.07-4.51,7.67-6.75
		c2.58-2.26,5.22-4.47,7.86-6.67l-0.65,1.36c0-2.05,0.09-4.01,0.34-6.03c0.27-2.01,0.55-4.03,1.44-6.13c0.24-0.53,0.5-1.06,0.9-1.61
		c0.4-0.53,0.96-1.14,1.85-1.5c1.2-0.45,2.29-0.54,3.38-0.59c2.17-0.05,4.16,0.27,6.21,0.82l-1.38,0.49
		c2.74-3.32,5.48-6.63,8.17-9.98c1.32-1.69,2.69-3.35,3.98-5.07c1.3-1.71,2.62-3.4,3.89-5.14l0.06-0.08l0.09-0.06
		c0.54-0.35,1.07-0.63,1.66-0.88c0.59-0.23,1.22-0.46,2.04-0.35c0.4,0.03,0.86,0.29,1.15,0.65c0.28,0.39,0.39,0.73,0.44,1.16
		c0.01,0.85-0.2,1.37-0.37,1.98c-0.78,2.3-1.75,4.44-2.71,6.59l-1.5,3.2l-1.58,3.16l-3.14,6.33l-0.48-1.91
		c1.65,0.94,3.25,1.93,4.85,2.95c1.6,1.03,3.16,2.08,4.72,3.35c0.39,0.31,0.78,0.67,1.2,1.09l0.33,0.38l0.16,0.19
		c0.07,0.11,0.15,0.25,0.22,0.38c0.07,0.13,0.13,0.27,0.19,0.41c0.03,0.08,0.05,0.11,0.08,0.24c0.03,0.16,0.04,0.32,0.04,0.49
		c0,0.17-0.02,0.33-0.05,0.49c-0.03,0.14-0.05,0.15-0.07,0.24c-0.05,0.13-0.1,0.26-0.16,0.39c-0.19,0.38-0.37,0.65-0.54,0.88
		c-0.17,0.25-0.34,0.44-0.51,0.65c-0.33,0.4-0.67,0.77-1,1.13c-1.34,1.43-2.72,2.73-4.12,4.02c-2.8,2.56-5.66,5.01-8.67,7.36
		c-0.76,0.59-1.52,1.17-2.35,1.73c-0.41,0.28-0.84,0.56-1.33,0.84l-0.42,0.22c-0.15,0.08-0.39,0.17-0.58,0.25
		c-0.16,0.06-0.46,0.12-0.69,0.14c-0.32,0.03-0.26,0.01-0.38,0.01l-0.44-0.02c-2.13-0.17-3.91-0.51-5.83-0.87l1.96-0.61l-6.85,6.9
		c-2.27,2.31-4.6,4.56-6.91,6.85c-2.3,2.29-4.64,4.53-6.97,6.79l-7.03,6.72l-0.94,0.9l-0.78-0.92c-1.93-2.28-3.84-4.55-5.64-6.79
		L1077,404.29z M1077.4,404.32c2.16,2.07,4.24,4.05,6.3,5.97c2.07,1.91,4.03,3.79,5.96,5.67l-1.72-0.02l6.5-7.24
		c2.19-2.39,4.35-4.81,6.57-7.18c2.21-2.37,4.39-4.77,6.63-7.12l6.69-7.06l0.79-0.84l1.17,0.23c1.75,0.34,3.65,0.69,5.25,0.81
		l0.26,0.01c0,0,0.18,0-0.03,0c-0.12,0-0.3,0.05-0.35,0.07c0.02-0.02,0.01,0,0.07-0.03l0.2-0.11c0.32-0.19,0.68-0.41,1.04-0.66
		c0.72-0.49,1.46-1.01,2.2-1.55c2.95-2.17,5.84-4.5,8.63-6.9c1.39-1.2,2.77-2.43,4.02-3.69c0.31-0.31,0.61-0.63,0.89-0.94
		c0.26-0.29,0.54-0.66,0.59-0.74c-0.01,0.02-0.02,0.04-0.02,0.07c-0.01,0.03,0.01-0.01-0.01,0.07c-0.03,0.1-0.04,0.21-0.04,0.31
		c0,0.11,0.02,0.22,0.05,0.31c0.02,0.08,0,0.05,0.01,0.08c0,0.03,0.01,0.07,0.03,0.1c0.01,0.03,0.04,0.06,0.06,0.07l-0.06-0.08
		l-0.12-0.16c-0.23-0.25-0.52-0.54-0.85-0.83c-2.66-2.29-5.79-4.45-8.8-6.55l-1.15-0.8l0.67-1.11l3.6-6.01
		c1.21-2,2.39-4.02,3.49-6.07c1.1-2.04,2.22-4.12,3-6.24c0.18-0.5,0.37-1.11,0.37-1.44c0-0.15-0.08-0.38-0.14-0.47
		c-0.09-0.08-0.15-0.16-0.34-0.18c-0.35-0.06-0.89,0.06-1.38,0.26c-0.49,0.2-1,0.46-1.45,0.74l0.15-0.14
		c-1.31,1.7-2.56,3.45-3.84,5.17c-1.29,1.72-2.5,3.49-3.76,5.24c-2.47,3.52-4.88,7.08-7.3,10.64l-0.44,0.65l-0.94-0.16
		c-1.74-0.3-3.66-0.43-5.37-0.27c-0.85,0.08-1.71,0.29-2.32,0.54c-0.02,0.01-0.17,0.13-0.33,0.38c-0.16,0.26-0.32,0.6-0.47,0.96
		c-0.55,1.53-0.87,3.39-1.08,5.23c-0.19,1.85-0.34,3.77-0.37,5.61l-0.02,0.86l-0.63,0.5c-2.52,2.02-5.03,4.03-7.61,6
		c-2.56,1.99-5.15,3.95-7.8,5.92c-2.62,1.98-5.33,3.95-8.06,5.96L1077.4,404.32z"/>
</g>
<path class="st2" d="M878.5,983.45l14.92-47.15l24.99,4.21l-12.95,50.97C905.46,991.49,883.77,996.11,878.5,983.45z"/>
<path class="st2" d="M971.46,1001.17l2.23-49.41l25.23-2.39l0.66,52.58C999.58,1001.96,979.82,1012.03,971.46,1001.17z"/>
<g>
	<path class="st4" d="M926.18,719.39c0,0,29.49,86.56,31.63,129.81c2.14,43.26,4.52,114.75,4.52,114.75s25.33,15.05,47.72-0.13
		c0,0-5.66-168.42-51.87-350.83s-43.83,10.68-43.83,10.68l-16.37,32.85L926.18,719.39z"/>
	<path class="st2" d="M926.37,719.31c6.59,19.68,12.57,39.52,18.01,59.54c5.38,20.01,10.4,40.18,13.06,60.8
		c0.32,2.58,0.48,5.18,0.73,7.76c0.13,1.3,0.2,2.59,0.25,3.88l0.17,3.88l0.69,15.53l1.38,31.06l2.72,62.13l-0.51-0.86
		c3.52,1.94,7.43,3.45,11.37,4.55c3.96,1.08,8.03,1.78,12.11,1.86c4.08,0.11,8.17-0.35,12.08-1.47c3.92-1.08,7.61-2.89,10.98-5.15
		l-0.51,1c-2.1-44.34-6.51-88.61-11.97-132.68c-5.63-44.07-12.71-87.94-21.39-131.5l-3.28-16.33c-1.1-5.44-2.36-10.85-3.54-16.27
		l-3.58-16.26c-0.57-2.72-1.23-5.41-1.89-8.11l-1.97-8.09c-2.67-10.77-5.09-21.61-7.98-32.32c-2.83-10.72-5.82-21.4-9.22-31.92
		c-1.71-5.26-3.48-10.49-5.48-15.61c-2.02-5.08-4.19-10.2-7.13-14.55c-0.74-1.06-1.55-2.06-2.41-2.82
		c-0.43-0.37-0.87-0.67-1.27-0.85c-0.4-0.18-0.72-0.21-1.01-0.16c-0.58,0.07-1.4,0.77-2.05,1.75c-0.66,0.98-1.22,2.15-1.69,3.37
		c-1.88,4.94-2.87,10.42-3.72,15.83c-1.66,10.89-2.49,21.97-3.1,33.03c-0.58,11.07-0.88,22.18-0.91,33.27l0,0.24l-0.1,0.19
		l-16.7,32.69l0.01-0.5L926.37,719.31z M925.99,719.46l-28.55-62.71l-0.11-0.25l0.12-0.25l16.05-33.02l-0.1,0.44
		c-0.19-11.14-0.11-22.26,0.24-33.4c0.38-11.13,0.97-22.27,2.45-33.39c0.82-5.55,1.72-11.11,3.72-16.61
		c0.52-1.37,1.14-2.74,2.01-4.08c0.44-0.67,0.97-1.33,1.65-1.93c0.68-0.6,1.58-1.15,2.66-1.36c1.08-0.22,2.19-0.02,3.06,0.36
		c0.88,0.38,1.58,0.88,2.22,1.41c1.24,1.07,2.19,2.25,3.05,3.45c1.7,2.41,3.05,4.94,4.3,7.48c1.24,2.55,2.36,5.14,3.42,7.74
		c2.1,5.21,4,10.48,5.72,15.79c6.88,21.26,12.29,42.87,17.4,64.52l1.94,8.12c0.65,2.7,1.3,5.41,1.87,8.13l3.53,16.32
		c1.15,5.44,2.41,10.87,3.47,16.33l3.18,16.38c8.43,43.7,15.18,87.71,20.62,131.86c5.24,44.18,9.43,88.48,11.31,132.98l0.03,0.65
		l-0.54,0.36c-3.58,2.37-7.52,4.27-11.68,5.4c-4.15,1.16-8.47,1.63-12.75,1.49c-4.29-0.11-8.52-0.86-12.63-2
		c-4.11-1.18-8.05-2.71-11.85-4.83l-0.49-0.27l-0.02-0.59l-2.17-62.14l-1.07-31.07l-0.54-15.54c-0.11-5.19-0.49-10.34-0.99-15.48
		c-2.45-20.55-7.32-40.76-12.54-60.8C938.56,758.96,932.56,739.09,925.99,719.46z"/>
</g>
<g>
	<path class="st4" d="M901.71,702.24c0,0,8.16,91.08,0,133.61c-8.16,42.53-22.77,112.56-22.77,112.56s21.05,20.62,46.4,11.17
		c0,0,34.37-164.97,32.65-353.14c-1.72-188.17-45.11,0-45.11,0l-23.69,28.04L901.71,702.24z"/>
	<path class="st2" d="M901.91,702.21c1.74,20.68,2.86,41.38,3.4,62.11c0.49,20.72,0.6,41.5-1.71,62.17
		c-0.3,2.58-0.76,5.14-1.13,7.71c-0.18,1.29-0.42,2.56-0.68,3.83l-0.75,3.81l-3.01,15.25l-6.01,30.51l-12.06,61.01l-0.29-0.95
		c2.96,2.72,6.41,5.11,9.97,7.11c3.59,1.99,7.38,3.63,11.33,4.68c3.94,1.07,8.02,1.59,12.08,1.43c4.06-0.12,8.07-1.01,11.89-2.4
		l-0.73,0.85c8.45-43.58,14.65-87.63,19.78-131.75c4.96-44.15,8.47-88.45,10.35-132.82l0.68-16.64c0.21-5.55,0.27-11.1,0.42-16.65
		l0.37-16.65c0.09-2.77,0.08-5.55,0.08-8.32l0-8.32c-0.04-11.1,0.17-22.2-0.1-33.29c-0.21-11.09-0.59-22.17-1.4-33.2
		c-0.42-5.51-0.89-11.01-1.63-16.46c-0.76-5.41-1.66-10.9-3.49-15.82c-0.47-1.21-1.02-2.37-1.67-3.31
		c-0.33-0.46-0.68-0.86-1.03-1.12c-0.35-0.27-0.65-0.38-0.94-0.4c-0.58-0.07-1.54,0.41-2.4,1.21c-0.87,0.8-1.69,1.8-2.44,2.87
		c-2.99,4.36-5.25,9.44-7.36,14.5c-4.19,10.19-7.62,20.75-10.83,31.36c-3.18,10.62-6.11,21.34-8.76,32.11l-0.06,0.24l-0.14,0.17
		l-23.97,27.81l0.13-0.48L901.91,702.21z M901.51,702.27l-12.89-67.68l-0.05-0.27l0.18-0.22l23.4-28.28l-0.2,0.4
		c2.45-10.87,5.16-21.66,8.14-32.4c3.01-10.73,6.22-21.41,10.28-31.87c2.11-5.2,4.3-10.39,7.54-15.26c0.83-1.21,1.75-2.39,2.92-3.49
		c0.59-0.54,1.26-1.06,2.06-1.49c0.8-0.42,1.81-0.74,2.91-0.69c1.1,0.04,2.13,0.5,2.89,1.07c0.77,0.57,1.33,1.23,1.82,1.89
		c0.95,1.33,1.6,2.7,2.15,4.08c1.08,2.75,1.79,5.52,2.41,8.29c0.6,2.77,1.08,5.55,1.49,8.33c0.81,5.56,1.4,11.13,1.81,16.7
		c1.65,22.28,1.8,44.56,1.63,66.81l-0.04,8.35c-0.01,2.78-0.02,5.56-0.11,8.35l-0.43,16.69c-0.17,5.56-0.23,11.13-0.49,16.68
		l-0.79,16.67c-2.15,44.45-6.01,88.81-11.18,133c-5.36,44.17-11.79,88.2-20.49,131.87l-0.13,0.64l-0.61,0.22
		c-4.04,1.45-8.31,2.37-12.62,2.48c-4.31,0.15-8.62-0.42-12.74-1.57c-4.14-1.12-8.08-2.85-11.79-4.94
		c-3.71-2.12-7.19-4.54-10.37-7.5l-0.41-0.38l0.12-0.57l12.6-60.89l6.32-30.44l3.16-15.22c1.12-5.07,1.97-10.16,2.7-15.27
		c2.48-20.55,2.53-41.34,2.21-62.04C904.36,743.62,903.25,722.9,901.51,702.27z"/>
</g>
<polygon class="st4" points="887.53,619.33 901.36,620.45 899.13,637.8 885.81,639.52 885.81,624.91 "/>
<g>
	<path class="st4" d="M885.81,624.48c-12.42,37.27-6.7,73.4,15.04,91.08c4.68,3.81,12.19,8.46,23.63,10.74"/>
	<path class="st2" d="M886,624.54c-2.95,9.9-4.89,20.08-5.38,30.33c-0.52,10.22,0.36,20.54,3.22,30.27c2.85,9.73,8,18.6,14.84,25.77
		c3.43,3.59,7.4,6.67,11.77,9.17c4.37,2.52,9.12,4.43,14.06,6.02l-0.08,0.39c-10.37-0.89-20.77-5.25-28.57-12.74
		c-3.9-3.71-7.12-8.11-9.56-12.86c-1.22-2.38-2.29-4.82-3.2-7.32c-0.95-2.48-1.69-5.03-2.35-7.58c-2.59-10.26-3.07-20.87-2.13-31.26
		c1.04-10.39,3.42-20.59,6.99-30.31L886,624.54z"/>
</g>
<path class="st1" d="M912.88,409.25l2.72-2.43l9.31-8.32l28.35,19.76c0,0-12.46,22.34,9.88,32.65
	c22.34,10.31,12.03,16.75,12.03,16.75l-48.55,19.76l-33.08-24.49c0,0,16.33-10.92,21.7-18.13c5.37-7.21,1.5-41.58,0.21-44.16"/>
<polygon class="st1" points="919.97,377.24 946.6,382.82 965.07,383.68 966.79,390.13 931.57,404.31 915.24,400.44 "/>
<g>
	<path class="st0" d="M886.18,346.5c-1.03-0.81-13.06-10-27.03-5.41c-11.71,3.86-21.39,16.29-18.92,28.38
		c2.82,13.84,19.8,18.77,29.73,18.92c5.7,0.09,10.38-1.38,13.52-2.7"/>
	<path class="st2" d="M886.06,346.66c-1.97-1.41-4.13-2.56-6.35-3.51c-2.22-0.95-4.54-1.66-6.9-2.1c-2.35-0.46-4.76-0.57-7.12-0.35
		c-1.19,0.06-2.34,0.32-3.5,0.54c-0.58,0.12-1.13,0.33-1.7,0.49c-0.57,0.17-1.13,0.33-1.67,0.57c-2.21,0.81-4.28,2-6.19,3.37
		c-0.98,0.66-1.85,1.46-2.74,2.21c-0.83,0.83-1.69,1.63-2.42,2.55c-3.06,3.54-5.16,7.88-5.79,12.37c-0.26,2.25-0.13,4.51,0.4,6.66
		c0.54,2.16,1.58,4.13,2.85,5.91c1.33,1.76,2.99,3.26,4.8,4.61c1.83,1.32,3.86,2.42,5.96,3.38c4.23,1.88,8.87,3.12,13.55,3.6
		c4.67,0.49,9.48-0.08,14.19-1.45l0.16,0.37c-4.3,2.44-9.33,3.85-14.45,3.89c-5.1,0.08-10.16-0.9-14.98-2.72
		c-2.38-0.98-4.73-2.15-6.86-3.7c-2.11-1.58-4.06-3.45-5.58-5.69c-1.46-2.27-2.57-4.78-3.08-7.42c-0.52-2.63-0.53-5.32-0.1-7.92
		c0.95-5.19,3.53-9.89,7.01-13.61c0.84-0.96,1.81-1.8,2.74-2.66c1-0.78,1.98-1.6,3.06-2.27c2.12-1.39,4.39-2.57,6.81-3.36
		c0.59-0.23,1.21-0.38,1.83-0.52c0.62-0.14,1.23-0.33,1.85-0.43c1.26-0.17,2.51-0.38,3.77-0.38c2.52-0.1,5.05,0.16,7.47,0.76
		c4.86,1.17,9.39,3.42,13.25,6.5L886.06,346.66z"/>
</g>
<path class="st10" d="M894.83,348.67l-8.63-1.05l-8.98-1.1l0.86,27.5l38.24,50.26l0.43-43.82l17.61,2.15c0,0,5.58-39.52,16.33-42.1
	c10.74-2.58-9.45-10.74-9.45-10.74l-28.78,1.72l-11.6,3.44l-15.04,14.61"/>
<g>
	<path class="st0" d="M959.38,360c7.59-2.09,13.16-8.29,14.08-15.62c1.15-9.17-5.57-15.33-6.24-15.92c-5.77-5.1-14.36-6.14-20.46-3
		c-1.81,0.93-3.1,2.08-3.91,2.91"/>
	<path class="st2" d="M959.33,359.81c2.61-0.9,5.02-2.28,7.04-4.08c2.01-1.8,3.6-4.02,4.62-6.45c0.51-1.22,0.88-2.47,1.11-3.75
		c0.08-0.65,0.19-1.29,0.19-1.93l0.03-0.97l-0.06-0.96c-0.01-0.64-0.18-1.27-0.26-1.9c-0.17-0.62-0.28-1.25-0.51-1.85
		c-0.39-1.22-0.95-2.38-1.62-3.47c-1.35-2.17-3.1-4.18-5.17-5.45c-2.09-1.36-4.39-2.34-6.82-2.95c-4.86-1.2-10.26-0.74-14.88,2.48
		l-0.29-0.28c1.54-2.43,4.06-4.36,6.93-5.34c1.42-0.52,2.93-0.83,4.45-0.96c1.52-0.1,3.06-0.05,4.57,0.18
		c3.03,0.49,5.95,1.75,8.37,3.67c0.61,0.49,1.16,0.98,1.74,1.55c0.55,0.57,1.03,1.14,1.49,1.74c0.93,1.19,1.73,2.46,2.41,3.8
		c0.68,1.33,1.24,2.74,1.6,4.21c0.22,0.72,0.31,1.48,0.44,2.21c0.05,0.75,0.18,1.5,0.14,2.25l-0.01,1.12l-0.12,1.12
		c-0.05,0.75-0.23,1.47-0.38,2.2c-0.37,1.44-0.89,2.83-1.56,4.14c-2.76,5.22-7.85,8.89-13.36,10.05L959.33,359.81z"/>
</g>
<g>
	<path class="st0" d="M946.7,330.29c-2.35-1.92-5.97-4.28-10.81-5.41c-14.06-3.27-25.6,6.82-27.03,8.11"/>
	<path class="st2" d="M946.57,330.44c-2.86-1.92-5.96-3.4-9.22-4.13c-3.25-0.71-6.57-0.85-9.78-0.31l-1.2,0.22
		c-0.4,0.08-0.79,0.22-1.18,0.33c-0.39,0.12-0.78,0.22-1.16,0.35l-1.14,0.44l-4.54,1.77c-1.52,0.61-3.04,1.25-4.6,1.92l-4.76,2.11
		l-0.27-0.3c1.89-3.15,4.75-5.52,7.91-7.34c1.61-0.87,3.32-1.57,5.13-1.95l1.35-0.28c0.45-0.08,0.92-0.12,1.37-0.19
		c0.91-0.14,1.82-0.21,2.74-0.26c1.83-0.12,3.67-0.04,5.47,0.22c0.91,0.08,1.78,0.37,2.67,0.56c0.89,0.19,1.74,0.49,2.58,0.8
		c3.35,1.32,6.39,3.28,8.88,5.73L946.57,330.44z"/>
</g>
<g>
	<path class="st5" d="M890.7,346.74c-1.83-0.05-6.4,0.19-9.98,4.43c-5.19,6.15-6.37,18.43-1.69,29.04"/>
	<path class="st2" d="M890.7,346.94c-1.72,0.11-3.38,0.54-4.87,1.26c-1.49,0.73-2.77,1.78-3.79,3.02c-1.01,1.26-1.84,2.66-2.4,4.19
		c-0.58,1.52-1.05,3.09-1.28,4.72c-0.26,1.62-0.32,3.27-0.23,4.91l0.2,4.9c0.1,1.64,0.18,3.3,0.36,4.98
		c0.14,1.69,0.41,3.38,0.54,5.21l-0.37,0.16c-1.2-1.38-2.18-2.96-2.89-4.64c-0.78-1.67-1.26-3.45-1.62-5.26
		c-0.69-3.65-0.07-7.41,0.88-10.95c0.95-3.54,2.6-7.03,5.36-9.61c2.77-2.57,6.6-3.75,10.12-3.3L890.7,346.94z"/>
</g>
<g>
	<path class="st0" d="M909.69,333.09c-0.76-0.32-9.26-3.72-16.25,0.93c-6.79,4.52-9.37,14.8-4.82,23.88"/>
	<path class="st2" d="M909.61,333.27c-3.43-0.99-7.1-1.27-10.42-0.45c-3.32,0.78-6.13,2.79-7.98,5.46
		c-0.94,1.33-1.54,2.88-1.94,4.44c-0.4,1.57-0.71,3.14-0.91,4.76c-0.19,1.62-0.23,3.28-0.18,5c0.1,1.71,0.35,3.44,0.61,5.32
		l-0.36,0.18c-1.3-1.39-2.31-3.08-3-4.9c-0.67-1.83-1.03-3.8-1.07-5.8c-0.02-2,0.39-4.01,1.16-5.86c0.79-1.85,1.85-3.58,3.15-5.1
		c1.29-1.52,2.85-2.82,4.6-3.76c1.75-0.94,3.67-1.51,5.58-1.72c1.92-0.2,3.83-0.06,5.66,0.3c1.83,0.35,3.6,0.93,5.25,1.76
		L909.61,333.27z"/>
</g>
<path class="st4" d="M917.7,382.32c12.91,4.2,19.28,2.35,21.56,0c4.56-4.7-0.74-12.79,4.05-25.68c2.15-5.79,6.41-12.72,9.46-12.16
	l0.48-8.27l-22.34,3.01l-15.9,36.09L917.7,382.32z"/>
<g>
	<path class="st1" d="M918.56,382.32c12.91,4.2,17.99,2.35,20.27,0c4.56-4.7-0.74-12.79,4.05-25.68c2.15-5.79,6.41-12.72,9.46-12.16
		c2.7,0.49,1.54,6.31,5.41,13.52c6.14,11.44,17.52,12.52,17.57,18.92c0.02,2.2-1.31,5.45-8.11,9.46"/>
	<path class="st2" d="M918.63,382.13c2.36,0.67,4.74,1.26,7.15,1.66c2.4,0.39,4.84,0.62,7.19,0.34c2.34-0.24,4.62-1.18,5.81-3.01
		c0.59-0.9,0.91-1.94,1.04-3.07c0.1-1.14,0.09-2.32,0.02-3.54c-0.12-2.42-0.31-4.93-0.23-7.46c0.07-2.53,0.39-5.08,1.02-7.55
		c0.62-2.48,1.46-4.9,2.55-7.2c1.1-2.3,2.31-4.55,4.04-6.63c0.44-0.52,0.92-1.03,1.49-1.51c0.27-0.25,0.63-0.46,0.94-0.69
		c0.18-0.11,0.39-0.2,0.58-0.3c0.19-0.1,0.39-0.19,0.65-0.25c0.87-0.32,2.28-0.26,3.28,0.55c0.96,0.8,1.25,1.66,1.53,2.35
		c0.46,1.38,0.71,2.56,1.02,3.73c0.3,1.16,0.62,2.28,1.02,3.36c1.53,4.34,4.09,8.13,7.52,11.23c1.69,1.59,3.61,2.98,5.6,4.47
		c0.99,0.76,2.01,1.54,2.99,2.48c0.97,0.92,1.96,2.09,2.46,3.61c0.49,1.52,0.37,3.15-0.2,4.5c-0.57,1.35-1.45,2.42-2.4,3.33
		c-1.93,1.78-4.14,3.02-6.41,4.03l-0.2-0.34c1.94-1.51,3.85-3.07,5.26-4.92c0.71-0.91,1.27-1.89,1.52-2.87
		c0.25-0.97,0.18-1.94-0.2-2.73c-0.78-1.59-2.8-2.9-4.84-4.18c-2.05-1.31-4.21-2.69-6.22-4.35c-1.99-1.67-3.83-3.63-5.3-5.85
		c-1.46-2.22-2.6-4.65-3.35-7.16c-0.38-1.25-0.67-2.52-0.91-3.76c-0.25-1.22-0.44-2.47-0.72-3.44c-0.13-0.45-0.33-0.77-0.33-0.77
		c0.01,0,0.04,0.01,0.02-0.01c-0.03,0.01-0.05,0-0.07-0.02c-0.04,0-0.1,0.03-0.16,0.03c-0.05-0.01-0.13,0.03-0.21,0.07l-0.25,0.1
		c-0.18,0.13-0.37,0.21-0.56,0.37c-0.39,0.29-0.77,0.66-1.15,1.06c-1.49,1.63-2.75,3.7-3.84,5.79c-1.11,2.11-1.98,4.32-2.64,6.59
		c-0.68,2.27-1.08,4.61-1.24,7c-0.18,2.39-0.09,4.8-0.07,7.29c0.01,1.24-0.05,2.53-0.23,3.83c-0.22,1.31-0.69,2.65-1.52,3.76
		c-0.81,1.13-1.98,1.93-3.2,2.46c-1.23,0.52-2.53,0.75-3.8,0.83c-5.12,0.25-9.94-1.25-14.58-2.84L918.63,382.13z"/>
</g>
<g>
	<path class="st1" d="M922.37,385.7c-0.43-0.65-3.97-5.84-8.11-5.41c-4.9,0.51-8.13,8.63-6.76,14.87
		c1.35,6.11,7.04,12.09,10.81,10.81c3.62-1.23,4.02-8.69,4.05-9.46"/>
	<path class="st2" d="M922.21,385.81c-1.75-1.54-3.6-2.96-5.44-3.59c-0.92-0.3-1.76-0.38-2.46-0.13c-0.7,0.2-1.36,0.62-1.93,1.28
		c-1.18,1.29-2.09,3.13-2.73,5.06c-0.31,0.97-0.55,1.99-0.66,3.02c-0.08,1.02-0.13,2.07,0.04,3.07c0.3,2.02,1.12,4.06,2.27,5.86
		c0.56,0.92,1.21,1.78,1.96,2.54c0.74,0.76,1.56,1.44,2.45,1.88c0.89,0.45,1.82,0.61,2.62,0.29c0.82-0.3,1.53-1.13,2.04-2.08
		c0.52-0.96,0.89-2.03,1.17-3.13c0.29-1.1,0.51-2.23,0.64-3.37l0.4,0.02c0.01,2.34-0.2,4.71-1.1,7c-0.46,1.12-1.16,2.32-2.46,3.02
		c-1.3,0.71-2.88,0.56-4.1,0.09c-1.24-0.48-2.3-1.21-3.26-2.02c-0.96-0.81-1.8-1.73-2.55-2.72c-0.75-0.99-1.4-2.06-1.95-3.19
		c-0.56-1.12-0.99-2.33-1.28-3.59c-0.6-2.54-0.54-5.14-0.06-7.68c0.55-2.52,1.66-5.04,3.82-6.99c1.09-0.94,2.54-1.71,4.14-1.85
		c1.6-0.15,3.13,0.34,4.25,1.11c2.28,1.52,3.64,3.64,4.51,5.89L922.21,385.81z"/>
</g>
<g>
	<path class="st4" d="M917.06,385.87c-0.82,0.84-1.48,1.77-1.91,2.74c-0.23,0.48-0.38,0.97-0.49,1.46
		c-0.13,0.48-0.18,0.97-0.21,1.45c-0.01,0.48,0.09,0.96,0.22,1.4c0.13,0.44,0.18,0.86,0.16,1.32c-0.02,0.46-0.06,0.96-0.13,1.53
		c-0.06,0.57-0.14,1.18-0.28,1.97l-0.33,0.23c-0.82-0.17-1.46-0.59-1.98-1.09c-0.53-0.51-0.93-1.13-1.2-1.81
		c-0.27-0.68-0.33-1.44-0.2-2.16c0.13-0.73,0.39-1.42,0.61-2.08c0.47-1.33,1.25-2.52,2.23-3.42c0.98-0.89,2.1-1.56,3.31-1.89
		L917.06,385.87z"/>
</g>
<g>
	<path class="st4" d="M956.2,361.57c-0.99,1.34-1.81,2.15-2.62,2.92c-0.4,0.38-0.84,0.65-1.33,0.9c-0.49,0.24-1.01,0.49-1.43,0.86
		c-0.44,0.35-0.85,0.76-1.22,1.19c-0.39,0.43-0.76,0.89-1.09,1.39c-0.7,0.99-1.2,2.14-1.61,3.37l-0.4-0.03
		c-0.22-1.33-0.12-2.72,0.16-4.1c0.32-1.37,0.9-2.73,1.75-3.93c0.41-0.61,0.84-1.23,1.33-1.82c0.5-0.58,1.13-1.02,1.84-1.3
		c1.41-0.53,3.02-0.66,4.54,0.15L956.2,361.57z"/>
</g>
<g>
	<ellipse class="st4" cx="954.81" cy="375.56" rx="1.35" ry="3.38"/>
	<path class="st4" d="M956.21,375.56c-0.03,0.65-0.06,1.3-0.19,1.95c-0.06,0.33-0.15,0.65-0.31,0.97c-0.16,0.29-0.4,0.66-0.9,0.71
		c-0.5-0.01-0.79-0.37-0.99-0.66c-0.2-0.31-0.33-0.63-0.43-0.96c-0.21-0.66-0.3-1.33-0.33-2.01c-0.03-0.68,0.01-1.36,0.16-2.06
		c0.09-0.34,0.2-0.69,0.4-1.03c0.21-0.31,0.52-0.76,1.19-0.79c0.67,0.06,0.94,0.52,1.1,0.84c0.16,0.35,0.22,0.7,0.27,1.04
		C956.26,374.25,956.22,374.91,956.21,375.56z M956.11,375.56c-0.02-0.64-0.19-1.28-0.45-1.85c-0.13-0.28-0.29-0.55-0.46-0.75
		c-0.17-0.21-0.38-0.31-0.39-0.27c-0.01-0.01-0.18,0.1-0.3,0.33c-0.13,0.21-0.25,0.48-0.33,0.76c-0.19,0.56-0.28,1.17-0.32,1.79
		c-0.02,0.62,0.02,1.24,0.15,1.84c0.07,0.3,0.16,0.59,0.3,0.83c0.13,0.25,0.33,0.45,0.5,0.46c0.18,0.03,0.42-0.16,0.58-0.41
		c0.18-0.24,0.31-0.53,0.43-0.83C956.03,376.86,956.14,376.21,956.11,375.56z"/>
</g>
<path class="st4" d="M915.02,375.31c0,0,2.61,8.33,11.4,9.75c8.79,1.42,14.2-5.27,14.2-5.27l-1.15-10.64L915.02,375.31z"/>
<g>
	<path class="st0" d="M889.93,354.61c-3.82,4.92-11.6,16.42-12.16,32.44c-0.27,7.69-0.7,19.77,8.11,28.38
		c11.64,11.38,29.59,7.14,31.09,6.76"/>
	<path class="st2" d="M890.09,354.74c-4.77,6.68-8.31,14.22-9.92,22.16c-0.2,0.99-0.41,1.98-0.54,2.98l-0.22,1.5l-0.14,1.51
		c-0.12,1-0.16,2.01-0.19,3.01c-0.05,0.99-0.06,2.03-0.06,3.05c-0.03,4.08,0.18,8.11,1.05,11.95c0.88,3.83,2.45,7.45,4.85,10.39
		c2.37,2.96,5.36,5.36,8.73,7.13c0.86,0.42,1.73,0.82,2.61,1.2c0.92,0.3,1.81,0.69,2.76,0.93c0.94,0.27,1.88,0.55,2.85,0.72
		c0.96,0.22,1.94,0.36,2.93,0.51c3.95,0.53,8.03,0.57,12.13,0.22l0.1,0.39c-3.92,1.49-8.14,2.19-12.41,2.2
		c-4.27-0.01-8.64-0.75-12.69-2.55c-4.03-1.82-7.63-4.74-10.19-8.38c-2.56-3.66-4.07-7.9-4.8-12.13c-0.74-4.24-0.74-8.51-0.51-12.65
		c0.05-1.04,0.11-2.06,0.21-3.12c0.08-1.05,0.18-2.1,0.35-3.14l0.23-1.56l0.31-1.55c0.18-1.04,0.46-2.05,0.71-3.07
		c2.2-8.1,6.24-15.61,11.55-21.94L890.09,354.74z"/>
</g>
<g>
	<path class="st2" d="M918.63,382.13c2.36,0.67,4.74,1.26,7.15,1.66c2.4,0.39,4.84,0.62,7.19,0.34c2.34-0.24,4.62-1.18,5.81-3.01
		c0.59-0.9,0.91-1.94,1.04-3.07c0.1-1.14,0.09-2.32,0.02-3.54c-0.12-2.42-0.31-4.93-0.23-7.46c0.07-2.53,0.39-5.08,1.02-7.55
		c0.62-2.48,1.46-4.9,2.55-7.2c1.1-2.3,2.31-4.55,4.04-6.63c0.44-0.52,0.92-1.03,1.49-1.51c0.27-0.25,0.63-0.46,0.94-0.69
		c0.18-0.11,0.39-0.2,0.58-0.3c0.19-0.1,0.39-0.19,0.65-0.25c0.87-0.32,2.28-0.26,3.28,0.55c0.96,0.8,1.25,1.66,1.53,2.35
		c0.46,1.38,0.71,2.56,1.02,3.73c0.3,1.16,0.62,2.28,1.02,3.36c1.53,4.34,4.09,8.13,7.52,11.23c1.69,1.59,3.61,2.98,5.6,4.47
		c0.99,0.76,2.01,1.54,2.99,2.48c0.97,0.92,1.96,2.09,2.46,3.61c0.49,1.52,0.37,3.15-0.2,4.5c-0.57,1.35-1.45,2.42-2.4,3.33
		c-1.93,1.78-4.14,3.02-6.41,4.03l-0.2-0.34c1.94-1.51,3.85-3.07,5.26-4.92c0.71-0.91,1.27-1.89,1.52-2.87
		c0.25-0.97,0.18-1.94-0.2-2.73c-0.78-1.59-2.8-2.9-4.84-4.18c-2.05-1.31-4.21-2.69-6.22-4.35c-1.99-1.67-3.83-3.63-5.3-5.85
		c-1.46-2.22-2.6-4.65-3.35-7.16c-0.38-1.25-0.67-2.52-0.91-3.76c-0.25-1.22-0.44-2.47-0.72-3.44c-0.13-0.45-0.33-0.77-0.33-0.77
		c0.01,0,0.04,0.01,0.02-0.01c-0.03,0.01-0.05,0-0.07-0.02c-0.04,0-0.1,0.03-0.16,0.03c-0.05-0.01-0.13,0.03-0.21,0.07l-0.25,0.1
		c-0.18,0.13-0.37,0.21-0.56,0.37c-0.39,0.29-0.77,0.66-1.15,1.06c-1.49,1.63-2.75,3.7-3.84,5.79c-1.11,2.11-1.98,4.32-2.64,6.59
		c-0.68,2.27-1.08,4.61-1.24,7c-0.18,2.39-0.09,4.8-0.07,7.29c0.01,1.24-0.05,2.53-0.23,3.83c-0.22,1.31-0.69,2.65-1.52,3.76
		c-0.81,1.13-1.98,1.93-3.2,2.46c-1.23,0.52-2.53,0.75-3.8,0.83c-5.12,0.25-9.94-1.25-14.58-2.84L918.63,382.13z"/>
</g>
<g>
	<path class="st2" d="M916.24,407.28c0.95,1.62,1.68,3.34,2.24,5.09c0.6,1.75,1,3.56,1.29,5.38c0.29,1.83,0.37,3.68,0.27,5.53
		l-0.23,2.77l-0.32,2.75c-0.14,0.91-0.26,1.83-0.41,2.73c-0.18,0.9-0.33,1.81-0.54,2.71c-0.43,1.79-0.95,3.56-1.55,5.29
		c-1.25,3.44-2.83,6.75-4.81,9.78l-0.35-0.19c1.4-3.3,2.54-6.68,3.24-10.14c0.74-3.45,1.13-6.94,1.24-10.43
		c0.01-0.87,0-1.75-0.03-2.62l-0.19-2.61c-0.16-1.74-0.25-3.47-0.3-5.21c-0.04-1.75-0.07-3.51-0.08-5.29c0-1.79-0.02-3.59,0.15-5.46
		L916.24,407.28z"/>
</g>
<g>
	<path class="st2" d="M950.95,423.59c0.49,2.63,0.66,4.98,0.93,7.3l0.14,1.72l0.07,1.71c0.01,1.15,0.11,2.3,0.36,3.42
		c0.51,2.23,1.4,4.38,2.74,6.3c1.26,1.99,3.08,3.62,5.12,5l-0.18,0.36c-2.37-0.83-4.62-2.22-6.47-4.07
		c-0.94-0.92-1.76-1.96-2.49-3.08c-0.7-1.13-1.3-2.33-1.78-3.57c-0.47-1.25-0.92-2.52-1.22-3.82c-0.32-1.3-0.41-2.65-0.29-3.97
		c0.11-1.32,0.38-2.62,0.82-3.87c0.42-1.25,1-2.46,1.86-3.53L950.95,423.59z"/>
</g>
<circle class="st5" cx="921.7" cy="406.65" r="4.73"/>
<g>
	<path class="st1" d="M922.37,400.57c13.82,21.37,35.27,26.27,43.93,19.6c6.98-5.38,7.95-20.08,2.01-34.68"/>
	<path class="st2" d="M922.54,400.46c2.16,3.03,4.57,5.87,7.19,8.47c2.66,2.56,5.54,4.88,8.67,6.77c3.09,1.94,6.42,3.48,9.87,4.5
		c3.44,1,7.05,1.47,10.47,1.04c1.7-0.22,3.34-0.7,4.76-1.45c0.71-0.38,1.36-0.81,1.91-1.36c0.27-0.28,0.57-0.53,0.81-0.83l0.71-0.94
		c0.87-1.33,1.55-2.84,2.06-4.45c0.46-1.63,0.87-3.3,1.05-5.05c0.46-3.47,0.39-7.09,0.02-10.7c-0.38-3.62-1.09-7.24-1.96-10.9
		l0.37-0.15c1.94,3.26,3.38,6.82,4.35,10.55c0.98,3.72,1.42,7.63,1.19,11.59c-0.1,1.98-0.48,3.97-1.06,5.92
		c-0.63,1.95-1.56,3.85-2.85,5.56l-1.07,1.21c-0.38,0.39-0.82,0.72-1.23,1.08c-0.83,0.71-1.8,1.23-2.77,1.68
		c-1.94,0.86-3.99,1.3-5.99,1.44c-4.03,0.27-7.94-0.49-11.59-1.75c-3.64-1.3-7.06-3.11-10.18-5.31
		c-6.22-4.43-11.28-10.24-15.09-16.69L922.54,400.46z"/>
</g>
<g>
	<path class="st4" d="M958.99,398.58c0.84,0.79,1.75,1.45,2.73,1.91c0.97,0.47,1.97,0.77,2.96,0.86c1.01,0.1,1.94-0.27,2.89-0.22
		c0.98,0.02,2,0,3.39,0.11l0.16,0.25c-0.27,0.68-0.72,1.2-1.24,1.63c-0.52,0.44-1.13,0.75-1.77,0.96c-0.65,0.21-1.34,0.26-2.02,0.15
		c-0.67-0.13-1.32-0.32-1.95-0.54c-1.26-0.41-2.37-1.12-3.28-1.98c-0.88-0.89-1.63-1.86-2.11-2.96L958.99,398.58z"/>
</g>
<polygon class="st4" points="927.05,635.65 957.99,606.44 961.85,648.54 961.85,716.42 948.11,738.33 915.45,648.97 "/>
<g>
	<path class="st5" d="M956.44,461.43c0,0,16.25,15.45,22.19,35.27c5.94,19.81-17.44,42.8-17.44,42.8s-7.13,5.94-4.76,10.3
		c2.38,4.36,15.85,74.9,15.85,74.9h-89.56l5.94-144.64c0,0-0.79-24.97,15.85-28.93c16.64-3.96,101.45-15.06,101.45-15.06
		l80.05-41.21c0,0,11.49,1.59,9.11,15.06c-2.38,13.47-80.05,55.88-80.05,55.88l-94.31,24.57"/>
	<path class="st2" d="M956.57,461.28c5.36,5.32,10.06,11.27,14.1,17.64c2.01,3.19,3.82,6.51,5.38,9.96
		c0.77,1.73,1.49,3.47,2.11,5.26c0.62,1.78,1.22,3.6,1.51,5.5c0.61,3.78,0.27,7.66-0.64,11.35c-0.91,3.7-2.37,7.23-4.11,10.59
		c-1.75,3.36-3.8,6.56-6.04,9.61c-2.25,3.05-4.65,5.96-7.32,8.69l-0.01,0.01l-0.03,0.02c-1.33,1.17-2.59,2.54-3.57,4.02
		c-0.96,1.46-1.71,3.2-1.34,4.76c0.04,0.19,0.11,0.38,0.19,0.56l0.3,0.63c0.2,0.47,0.33,0.91,0.47,1.37c0.27,0.9,0.52,1.8,0.75,2.7
		c0.47,1.8,0.9,3.6,1.32,5.4c1.67,7.21,3.21,14.45,4.72,21.69c3.02,14.48,5.92,28.99,8.77,43.5l0.2,1.03l-1.05,0l-89.56,0.28l-1.2,0
		l0.05-1.2l5.54-144.66l0,0.11c-0.04-3.06,0.22-5.96,0.71-8.91c0.5-2.93,1.24-5.84,2.39-8.65c1.15-2.8,2.71-5.51,4.86-7.79
		c2.14-2.29,4.93-4.05,7.96-4.96c2.99-0.79,5.76-1.29,8.63-1.82c2.85-0.54,5.69-1,8.54-1.49c5.69-0.93,11.38-1.83,17.08-2.7
		c22.79-3.45,45.59-6.66,68.42-9.72l-0.66,0.21c13.34-6.88,26.64-13.83,40-20.66l40.05-20.55l0.58-0.3l0.61,0.1
		c0.48,0.08,0.78,0.15,1.14,0.25c0.35,0.09,0.69,0.2,1.03,0.32c0.67,0.24,1.32,0.52,1.96,0.85c1.26,0.67,2.45,1.53,3.46,2.59
		c2.06,2.13,3.18,5.04,3.41,7.81c0.13,1.39,0.09,2.77-0.07,4.1c-0.04,0.33-0.1,0.66-0.15,0.99l-0.08,0.51
		c-0.05,0.22-0.09,0.44-0.16,0.63c-0.24,0.81-0.58,1.48-0.94,2.1c-1.48,2.44-3.3,4.24-5.14,6.01c-3.71,3.47-7.67,6.5-11.69,9.43
		c-4.03,2.92-8.13,5.69-12.27,8.4c-8.29,5.41-16.74,10.55-25.25,15.55c-8.52,5-17.14,9.81-25.84,14.52l-0.15,0.08l-0.15,0.04
		l-47.27,11.84l-47.32,11.65l-0.1-0.39l46.99-12.92l47.04-12.73l-0.3,0.12c8.58-4.81,17.07-9.82,25.5-14.89
		c8.43-5.08,16.79-10.28,24.96-15.73c4.08-2.73,8.12-5.52,12.05-8.43c3.92-2.92,7.78-5.93,11.23-9.24c1.69-1.65,3.36-3.42,4.42-5.22
		c0.26-0.44,0.46-0.89,0.56-1.26c0.03-0.1,0.04-0.18,0.06-0.27l0.06-0.41c0.04-0.28,0.09-0.56,0.11-0.84
		c0.12-1.11,0.14-2.22,0.03-3.28c-0.22-2.12-1.01-4.05-2.41-5.47c-0.7-0.71-1.53-1.32-2.45-1.79c-0.46-0.24-0.94-0.44-1.44-0.61
		c-0.47-0.16-1.06-0.32-1.4-0.37l1.19-0.2l-39.99,20.66c-13.32,6.91-26.7,13.7-40.05,20.56l-0.31,0.16l-0.35,0.05
		c-22.82,2.98-45.65,5.97-68.42,9.27c-5.69,0.82-11.38,1.68-17.05,2.57c-2.83,0.47-5.67,0.91-8.49,1.42
		c-2.79,0.49-5.69,1.02-8.27,1.68c-2.5,0.73-4.75,2.12-6.56,4.02c-1.82,1.89-3.21,4.24-4.26,6.75c-2.07,5.04-2.94,10.77-2.95,16.23
		l0,0.11l0,0.01l-6.35,144.63l-1.15-1.2l89.56,0.28l-0.85,1.03c-2.73-14.53-5.53-29.05-8.44-43.55c-1.46-7.25-2.94-14.49-4.55-21.7
		c-0.41-1.8-0.82-3.6-1.27-5.38c-0.22-0.89-0.46-1.78-0.71-2.65c-0.13-0.43-0.26-0.87-0.42-1.26l-0.29-0.62
		c-0.1-0.24-0.19-0.5-0.25-0.75c-0.25-1.04-0.09-2.1,0.22-3.04c0.31-0.95,0.79-1.8,1.32-2.6c1.08-1.59,2.36-2.97,3.81-4.23
		l-0.03,0.03c2.61-2.64,5.03-5.52,7.27-8.51c2.24-3,4.28-6.14,6.03-9.44c1.74-3.3,3.2-6.76,4.12-10.37
		c0.91-3.6,1.27-7.37,0.71-11.03c-0.26-1.83-0.84-3.61-1.44-5.38c-0.59-1.77-1.3-3.51-2.05-5.22c-1.51-3.43-3.29-6.74-5.26-9.93
		c-3.96-6.36-8.61-12.33-13.89-17.65L956.57,461.28z"/>
</g>
</svg>
