<?xml version="1.0"?>
<svg xmlns="http://www.w3.org/2000/svg" xmlns:xlink="http://www.w3.org/1999/xlink" version="1.1" viewBox="0 0 192 192" width="64px" height="64px"><g fill="none" fill-rule="nonzero" stroke="none" stroke-width="1" stroke-linecap="butt" stroke-linejoin="miter" stroke-miterlimit="10" stroke-dasharray="" stroke-dashoffset="0" font-family="none" font-weight="none" font-size="none" text-anchor="none" style="mix-blend-mode: normal"><path d="M0,192v-192h192v192z" fill="none"/><g fill="#ffffff"><g id="surface1"><path d="M39,18c-11.57812,0 -21,9.42188 -21,21v114c0,11.57813 9.42188,21 21,21h114c11.57813,0 21,-9.42187 21,-21v-114c0,-11.57812 -9.42187,-21 -21,-21zM39,24h114c8.27344,0 15,6.72656 15,15v114c0,8.27344 -6.72656,15 -15,15h-114c-8.27344,0 -15,-6.72656 -15,-15v-114c0,-8.27344 6.72656,-15 15,-15zM144,39c-4.95703,0 -9,4.04297 -9,9c0,4.95703 4.04297,9 9,9c4.95703,0 9,-4.04297 9,-9c0,-4.95703 -4.04297,-9 -9,-9zM144,43.59375c2.42578,0 4.40625,1.98047 4.40625,4.40625c0,2.42578 -1.98047,4.40625 -4.40625,4.40625c-2.42578,0 -4.40625,-1.98047 -4.40625,-4.40625c0,-2.42578 1.98047,-4.40625 4.40625,-4.40625zM96,54c-23.15625,0 -42,18.84375 -42,42c0,23.15625 18.84375,42 42,42c23.15625,0 42,-18.84375 42,-42c0,-23.15625 -18.84375,-42 -42,-42zM96,60c19.85156,0 36,16.14844 36,36c0,19.85156 -16.14844,36 -36,36c-19.85156,0 -36,-16.14844 -36,-36c0,-19.85156 16.14844,-36 36,-36zM96,66c-16.54687,0 -30,13.45313 -30,30c0,16.54688 13.45313,30 30,30c16.54688,0 30,-13.45312 30,-30c0,-16.54687 -13.45312,-30 -30,-30zM96,72c13.23047,0 24,10.76953 24,24c0,13.23047 -10.76953,24 -24,24c-13.23047,0 -24,-10.76953 -24,-24c0,-13.23047 10.76953,-24 24,-24zM36,147c-1.65234,0 -3,1.34766 -3,3v6c0,1.65234 1.34766,3 3,3c1.65234,0 3,-1.34766 3,-3v-6c0,-1.65234 -1.34766,-3 -3,-3zM51,147c-1.65234,0 -3,1.34766 -3,3v6c0,1.65234 1.34766,3 3,3c1.65234,0 3,-1.34766 3,-3v-6c0,-1.65234 -1.34766,-3 -3,-3zM66,147c-1.65234,0 -3,1.34766 -3,3v6c0,1.65234 1.34766,3 3,3c1.65234,0 3,-1.34766 3,-3v-6c0,-1.65234 -1.34766,-3 -3,-3zM81,147c-1.65234,0 -3,1.34766 -3,3v6c0,1.65234 1.34766,3 3,3c1.65234,0 3,-1.34766 3,-3v-6c0,-1.65234 -1.34766,-3 -3,-3zM96,147c-1.65234,0 -3,1.34766 -3,3v6c0,1.65234 1.34766,3 3,3c1.65234,0 3,-1.34766 3,-3v-6c0,-1.65234 -1.34766,-3 -3,-3zM111,147c-1.65234,0 -3,1.34766 -3,3v6c0,1.65234 1.34766,3 3,3c1.65234,0 3,-1.34766 3,-3v-6c0,-1.65234 -1.34766,-3 -3,-3zM126,147c-1.65234,0 -3,1.34766 -3,3v6c0,1.65234 1.34766,3 3,3c1.65234,0 3,-1.34766 3,-3v-6c0,-1.65234 -1.34766,-3 -3,-3zM141,147c-1.65234,0 -3,1.34766 -3,3v6c0,1.65234 1.34766,3 3,3c1.65234,0 3,-1.34766 3,-3v-6c0,-1.65234 -1.34766,-3 -3,-3zM156,147c-1.65234,0 -3,1.34766 -3,3v6c0,1.65234 1.34766,3 3,3c1.65234,0 3,-1.34766 3,-3v-6c0,-1.65234 -1.34766,-3 -3,-3z"/></g></g></g></svg>
