<?xml version="1.0"?>
<svg xmlns="http://www.w3.org/2000/svg" xmlns:xlink="http://www.w3.org/1999/xlink" version="1.1" viewBox="0 0 192 192" width="64px" height="64px"><g fill="none" fill-rule="nonzero" stroke="none" stroke-width="1" stroke-linecap="butt" stroke-linejoin="miter" stroke-miterlimit="10" stroke-dasharray="" stroke-dashoffset="0" font-family="none" font-weight="none" font-size="none" text-anchor="none" style="mix-blend-mode: normal"><path d="M0,192v-192h192v192z" fill="none"/><g fill="#ffffff"><g id="surface1"><path d="M39,18c-11.57812,0 -21,9.42188 -21,21v114c0,11.57813 9.42188,21 21,21h114c11.57813,0 21,-9.42187 21,-21v-114c0,-11.57812 -9.42187,-21 -21,-21zM39,24h114c8.27344,0 15,6.72656 15,15v114c0,8.27344 -6.72656,15 -15,15h-114c-8.27344,0 -15,-6.72656 -15,-15v-114c0,-8.27344 6.72656,-15 15,-15zM36,36c-1.66406,0 -3,1.34766 -3,3v6c0,1.65234 1.33594,3 3,3c1.66406,0 3,-1.34766 3,-3v-6c0,-1.65234 -1.33594,-3 -3,-3zM51,36c-1.66406,0 -3,1.34766 -3,3v6c0,1.65234 1.33594,3 3,3c1.66406,0 3,-1.34766 3,-3v-6c0,-1.65234 -1.33594,-3 -3,-3zM66,36c-1.66406,0 -3,1.34766 -3,3v6c0,1.65234 1.33594,3 3,3c1.66406,0 3,-1.34766 3,-3v-6c0,-1.65234 -1.33594,-3 -3,-3zM81,36c-1.66406,0 -3,1.34766 -3,3v6c0,1.65234 1.33594,3 3,3c1.66406,0 3,-1.34766 3,-3v-6c0,-1.65234 -1.33594,-3 -3,-3zM96,36c-1.66406,0 -3,1.34766 -3,3v6c0,1.65234 1.33594,3 3,3c1.66406,0 3,-1.34766 3,-3v-6c0,-1.65234 -1.33594,-3 -3,-3zM111,36c-1.66406,0 -3,1.34766 -3,3v6c0,1.65234 1.33594,3 3,3c1.66406,0 3,-1.34766 3,-3v-6c0,-1.65234 -1.33594,-3 -3,-3zM126,36c-1.66406,0 -3,1.34766 -3,3v6c0,1.65234 1.33594,3 3,3c1.66406,0 3,-1.34766 3,-3v-6c0,-1.65234 -1.33594,-3 -3,-3zM141,36c-1.66406,0 -3,1.34766 -3,3v6c0,1.65234 1.33594,3 3,3c1.66406,0 3,-1.34766 3,-3v-6c0,-1.65234 -1.33594,-3 -3,-3zM156,36c-1.66406,0 -3,1.34766 -3,3v6c0,1.65234 1.33594,3 3,3c1.66406,0 3,-1.34766 3,-3v-6c0,-1.65234 -1.33594,-3 -3,-3zM58.5,54c-7.44141,0 -13.5,6.05859 -13.5,13.5c0,7.44141 6.05859,13.5 13.5,13.5c7.44141,0 13.5,-6.05859 13.5,-13.5c0,-7.44141 -6.05859,-13.5 -13.5,-13.5zM58.5,59.01563c4.67578,0 8.48438,3.80859 8.48438,8.48438c0,4.67578 -3.80859,8.48438 -8.48437,8.48438c-4.67578,0 -8.48437,-3.80859 -8.48437,-8.48437c0,-4.67578 3.80859,-8.48437 8.48438,-8.48437zM119.625,82.3125c-6.94922,0 -12.44531,2.44922 -16.32422,5.625v-1.01953c0,-1.65234 -1.33594,-3 -3,-3h-19.30078c-1.65234,0 -3,1.34766 -3,3v66.08203c0,1.65234 1.34766,3 3,3h20.10938c1.66406,0 3,-1.34766 3,-3v-33.33984c0,-9.9375 2.46094,-13.62891 9.08203,-13.62891c6.375,0 7.45313,4.37109 7.45313,14.16797v32.80078c0,1.65234 1.33594,3 3,3h20.12109c1.66406,0 3,-1.34766 3,-3v-36.83203c0.01172,-16.73437 -3.21094,-33.85547 -27.14062,-33.85547zM48,84c-1.66406,0 -3,1.34766 -3,3v66c0,1.65234 1.33594,3 3,3h21c1.66406,0 3,-1.34766 3,-3v-66c0,-1.65234 -1.33594,-3 -3,-3zM119.625,88.3125c17.61328,0 21.15234,10.65234 21.15234,27.85547v33.83203h-14.13281v-29.8125c0,-7.04297 0,-20.16797 -13.45312,-20.16797c-15.08203,0 -15.08203,14.77734 -15.08203,19.64063v30.33984h-14.10937v-60.08203h13.3125v5.85938c0,1.65235 1.60547,3 3.26953,3c1.11328,0 2.13281,-0.62109 2.64844,-1.60547c2.15625,-4.08984 7.7461,-8.85937 16.39453,-8.85937zM51,90h15v60h-15z"/></g></g></g></svg>
