<?xml version="1.0"?>
<svg xmlns="http://www.w3.org/2000/svg" xmlns:xlink="http://www.w3.org/1999/xlink" version="1.1" viewBox="0 0 192 192" width="80px" height="80px"><g transform=""><g fill="none" fill-rule="nonzero" stroke="none" stroke-width="1" stroke-linecap="butt" stroke-linejoin="miter" stroke-miterlimit="10" stroke-dasharray="" stroke-dashoffset="0" font-family="none" font-weight="none" font-size="none" text-anchor="none" style="mix-blend-mode: normal"><path d="M0,192v-192h192v192z" fill="none"/><g fill="#ffffff"><g id="surface1"><path d="M174.45,30.59063l-5.4375,3.225c-5.52187,3.27187 -11.63437,5.625 -18.1125,7.02187c-6.075,-5.925 -14.325,-9.65625 -23.475,-9.65625c-18.60937,0 -33.75937,15.15 -33.75937,33.76875c0,1.47187 0.3,2.86875 0.4875,4.30313c-24.16875,-2.025 -45.58125,-13.6875 -60.06563,-31.44375l-2.18437,-2.69062l-1.74375,3c-2.90625,4.9875 -4.575,10.79062 -4.575,16.96875c0,8.50313 3.21563,16.2375 8.40938,22.18125c-1.7625,-0.58125 -3.49688,-1.20938 -5.09063,-2.09063l-3.5625,-1.9875v4.47187c0,12.57187 6.95625,23.44687 17.175,29.25c-1.11563,-0.075 -2.25,-0.10313 -3.32813,-0.30937l-3.975,-0.75937l1.2375,3.84375c3.66563,11.44687 13.40625,19.81875 25.30313,22.33125c-9.45937,6.075 -20.5875,9.74062 -32.67187,9.74062c-2.4375,0 -4.8375,-0.13125 -7.2,-0.42187l-10.36875,-1.2375l8.79375,5.65313c14.25,9.13125 31.19062,14.45625 49.36875,14.45625c29.50313,0 52.5375,-12.29062 68.04375,-29.8875c15.50625,-17.5875 23.57812,-40.40625 23.57812,-61.73437c0,-1.0125 -0.02812,-2.00625 -0.05625,-3c5.89687,-4.45313 11.1,-9.81563 15.21563,-15.96563l4.60312,-6.89062l-7.575,3.36562c-2.83125,1.26563 -5.72812,2.25938 -8.7,3.06563c3.36563,-3.6 6.17813,-7.67813 7.74375,-12.55313zM127.425,35.98125c8.34375,0 15.8625,3.51562 21.15,9.15l0.9,0.96562l1.3125,-0.25312c4.93125,-0.975 9.5625,-2.68125 14.025,-4.6875c-2.34375,3.94687 -5.23125,7.45312 -9.23437,9.85312l-1.9125,1.14375l1.80937,3.60937l1.67813,-0.19687c3.49687,-0.43125 6.83437,-1.17187 10.07813,-2.11875c-2.98125,3.35625 -6.1875,6.50625 -9.825,9.14063l-1.04063,0.75l0.04687,1.29375c0.05625,1.3125 0.08437,2.63437 0.08437,3.95625c0,20.10937 -7.6875,41.90625 -22.37812,58.56563c-14.69063,16.65937 -36.2625,28.25625 -64.44375,28.25625c-13.77187,0 -26.70937,-3.32812 -38.26875,-9.04687c14.325,-0.50625 27.54375,-5.45625 38.10937,-13.73437l5.30625,-4.1625l-6.75,-0.13125c-11.2875,-0.20625 -20.69062,-7.03125 -25.28437,-16.59375c0.61875,0.0375 1.20937,0.17813 1.8375,0.17813c3.08437,0 6.075,-0.4125 8.90625,-1.18125l9.76875,-2.68125l-9.9375,-1.99688c-12.1125,-2.42812 -21.10313,-12.53437 -22.62187,-24.975c3.49687,1.36875 7.18125,2.38125 11.11875,2.50313l8.39063,0.27187l-6.975,-4.65937c-7.77187,-5.19375 -12.89063,-14.04375 -12.89063,-24.1125c0,-4.1625 1.09688,-7.99687 2.6625,-11.56875c15.825,17.85 38.29688,29.7 63.70313,30.96562l3.17813,0.16875l-0.7125,-3.10313c-0.49687,-2.11875 -0.75,-4.33125 -0.75,-6.6c0,-16.02187 12.94687,-28.96875 28.95937,-28.96875zM127.2,40.8c-1.32187,0 -2.4,1.07813 -2.4,2.4c0,1.32187 1.07813,2.4 2.4,2.4c1.32187,0 2.4,-1.07813 2.4,-2.4c0,-1.32187 -1.07813,-2.4 -2.4,-2.4zM116.33437,43.6875c-0.39375,0.01875 -0.7875,0.12187 -1.13437,0.32813c-1.15313,0.66563 -1.54687,2.12813 -0.88125,3.27187c0.66562,1.15313 2.12812,1.54687 3.28125,0.89063c0.54375,-0.31875 0.94687,-0.84375 1.11563,-1.4625c0.16875,-0.61875 0.08437,-1.275 -0.24375,-1.82813c-0.43125,-0.75937 -1.25625,-1.21875 -2.1375,-1.2zM108.375,51.6c-0.80625,0.04687 -1.54687,0.49687 -1.95937,1.2c-0.31875,0.55313 -0.40313,1.20937 -0.24375,1.81875c0.16875,0.61875 0.57188,1.14375 1.11563,1.4625c1.15313,0.66562 2.61563,0.2625 3.28125,-0.88125c0.66562,-1.14375 0.27187,-2.61563 -0.88125,-3.27187c-0.39375,-0.23437 -0.85313,-0.34687 -1.3125,-0.32813zM105.6,62.4c-1.32187,0 -2.4,1.07813 -2.4,2.4c0,1.32187 1.07813,2.4 2.4,2.4c1.32187,0 2.4,-1.07813 2.4,-2.4c0,-1.32187 -1.07813,-2.4 -2.4,-2.4zM57.6,84c-1.32187,0 -2.4,1.07813 -2.4,2.4c0,1.32187 1.07813,2.4 2.4,2.4c1.32187,0 2.4,-1.07813 2.4,-2.4c0,-1.32187 -1.07813,-2.4 -2.4,-2.4zM67.2,86.4c-1.32187,0 -2.4,1.07813 -2.4,2.4c0,1.32187 1.07813,2.4 2.4,2.4c1.32187,0 2.4,-1.07813 2.4,-2.4c0,-1.32187 -1.07813,-2.4 -2.4,-2.4zM76.8,88.8c-1.32187,0 -2.4,1.07813 -2.4,2.4c0,1.32187 1.07813,2.4 2.4,2.4c1.32187,0 2.4,-1.07813 2.4,-2.4c0,-1.32187 -1.07813,-2.4 -2.4,-2.4zM69.6,105.6c-1.32187,0 -2.4,1.07813 -2.4,2.4c0,1.32187 1.07813,2.4 2.4,2.4c1.32187,0 2.4,-1.07813 2.4,-2.4c0,-1.32187 -1.07813,-2.4 -2.4,-2.4zM79.2,105.6c-1.32187,0 -2.4,1.07813 -2.4,2.4c0,1.32187 1.07813,2.4 2.4,2.4c1.32187,0 2.4,-1.07813 2.4,-2.4c0,-1.32187 -1.07813,-2.4 -2.4,-2.4zM81.6,122.4c-1.32187,0 -2.4,1.07813 -2.4,2.4c0,1.32187 1.07813,2.4 2.4,2.4c1.32187,0 2.4,-1.07813 2.4,-2.4c0,-1.32187 -1.07813,-2.4 -2.4,-2.4z"/></g></g><path d="" fill="none"/><path d="" fill="none"/></g></g></svg>
